<svg width="48" height="48" viewBox="0 0 48 48" fill="none" xmlns="http://www.w3.org/2000/svg">
<g filter="url(#filter0_d_820_23543)">
<rect x="4" width="40" height="40" rx="20" fill="#5172ED" shape-rendering="crispEdges"/>
<path d="M18.5917 15.4167C18.1334 15.4167 17.7584 15.0417 17.7584 14.5833C17.7584 14.125 18.125 13.75 18.5917 13.75H18.6C19.0584 13.75 19.4334 14.125 19.4334 14.5833C19.4334 15.0417 19.0584 15.4167 18.5917 15.4167Z" fill="white"/>
<path d="M29.425 26.2497C28.9667 26.2497 28.5917 25.8747 28.5917 25.4163C28.5917 24.958 28.9583 24.583 29.425 24.583H29.4333C29.8917 24.583 30.2667 24.958 30.2667 25.4163C30.2667 25.8747 29.8917 26.2497 29.425 26.2497Z" fill="white"/>
<path d="M18.5583 18.1253C16.6083 18.1253 15.0167 16.5337 15.0167 14.5837C15.0167 12.6337 16.6083 11.042 18.5583 11.042C20.5083 11.042 22.1 12.6337 22.1 14.5837C22.1 16.5337 20.5167 18.1253 18.5583 18.1253ZM18.5583 12.292C17.2917 12.292 16.2667 13.317 16.2667 14.5837C16.2667 15.8503 17.2917 16.8753 18.5583 16.8753C19.825 16.8753 20.85 15.8503 20.85 14.5837C20.85 13.317 19.825 12.292 18.5583 12.292Z" fill="white"/>
<path d="M30.6416 28.9583H28.1416C26.875 28.9583 25.85 27.9333 25.85 26.6667V24.1667C25.85 22.9 26.875 21.875 28.1416 21.875H30.6416C31.9083 21.875 32.9333 22.9 32.9333 24.1667V26.6667C32.9333 27.9333 31.9083 28.9583 30.6416 28.9583ZM28.1416 23.125C27.5666 23.125 27.1 23.5917 27.1 24.1667V26.6667C27.1 27.2417 27.5666 27.7083 28.1416 27.7083H30.6416C31.2166 27.7083 31.6833 27.2417 31.6833 26.6667V24.1667C31.6833 23.5917 31.2166 23.125 30.6416 23.125H28.1416Z" fill="white"/>
<path d="M24 26.4587H21.7666C20.8 26.4587 19.9583 25.8753 19.625 24.9753C19.2833 24.0753 19.5333 23.0837 20.2583 22.442L26.9166 16.617C27.3166 16.267 27.325 15.792 27.2083 15.467C27.0833 15.142 26.7666 14.792 26.2333 14.792H24C23.6583 14.792 23.375 14.5087 23.375 14.167C23.375 13.8253 23.6583 13.542 24 13.542H26.2333C27.2 13.542 28.0416 14.1253 28.375 15.0253C28.7166 15.9253 28.4666 16.917 27.7416 17.5587L21.0833 23.3837C20.6833 23.7337 20.675 24.2087 20.7916 24.5337C20.9166 24.8587 21.2333 25.2087 21.7666 25.2087H24C24.3416 25.2087 24.625 25.492 24.625 25.8337C24.625 26.1753 24.3416 26.4587 24 26.4587Z" fill="white"/>
</g>
<defs>
<filter id="filter0_d_820_23543" x="0" y="0" width="48" height="48" filterUnits="userSpaceOnUse" color-interpolation-filters="sRGB">
<feFlood flood-opacity="0" result="BackgroundImageFix"/>
<feColorMatrix in="SourceAlpha" type="matrix" values="0 0 0 0 0 0 0 0 0 0 0 0 0 0 0 0 0 0 127 0" result="hardAlpha"/>
<feOffset dy="4"/>
<feGaussianBlur stdDeviation="2"/>
<feComposite in2="hardAlpha" operator="out"/>
<feColorMatrix type="matrix" values="0 0 0 0 0 0 0 0 0 0 0 0 0 0 0 0 0 0 0.25 0"/>
<feBlend mode="normal" in2="BackgroundImageFix" result="effect1_dropShadow_820_23543"/>
<feBlend mode="normal" in="SourceGraphic" in2="effect1_dropShadow_820_23543" result="shape"/>
</filter>
</defs>
</svg>
