<svg width="20" height="20" viewBox="0 0 20 20" fill="none" xmlns="http://www.w3.org/2000/svg">
<g id="vuesax/outline/calendar">
<g id="calendar">
<path id="Vector" d="M6.66699 4.7915C6.32533 4.7915 6.04199 4.50817 6.04199 4.1665V1.6665C6.04199 1.32484 6.32533 1.0415 6.66699 1.0415C7.00866 1.0415 7.29199 1.32484 7.29199 1.6665V4.1665C7.29199 4.50817 7.00866 4.7915 6.66699 4.7915Z" fill="#3D3D3D"/>
<path id="Vector_2" d="M13.333 4.7915C12.9913 4.7915 12.708 4.50817 12.708 4.1665V1.6665C12.708 1.32484 12.9913 1.0415 13.333 1.0415C13.6747 1.0415 13.958 1.32484 13.958 1.6665V4.1665C13.958 4.50817 13.6747 4.7915 13.333 4.7915Z" fill="#3D3D3D"/>
<path id="Vector_3" d="M12.5 18.9582H7.5C2.81667 18.9582 1.875 16.7498 1.875 13.1832V8.0415C1.875 4.0915 3.20833 2.48317 6.63333 2.2915H13.3333C13.3417 2.2915 13.3583 2.2915 13.3667 2.2915C16.7917 2.48317 18.125 4.0915 18.125 8.0415V13.1832C18.125 16.7498 17.1833 18.9582 12.5 18.9582ZM6.66667 3.5415C4.33333 3.67484 3.125 4.40817 3.125 8.0415V13.1832C3.125 16.3748 3.73333 17.7082 7.5 17.7082H12.5C16.2667 17.7082 16.875 16.3748 16.875 13.1832V8.0415C16.875 4.4165 15.675 3.67484 13.3167 3.5415H6.66667Z" fill="#3D3D3D"/>
<path id="Vector_4" d="M17.2913 15.2915H2.70801C2.36634 15.2915 2.08301 15.0082 2.08301 14.6665C2.08301 14.3248 2.36634 14.0415 2.70801 14.0415H17.2913C17.633 14.0415 17.9163 14.3248 17.9163 14.6665C17.9163 15.0082 17.633 15.2915 17.2913 15.2915Z" fill="#3D3D3D"/>
<path id="Vector_5" d="M10.0003 6.875C8.97533 6.875 8.10866 7.43333 8.10866 8.51667C8.10866 9.03333 8.35033 9.425 8.71699 9.675C8.20866 9.975 7.91699 10.4583 7.91699 11.025C7.91699 12.0583 8.70866 12.7 10.0003 12.7C11.2837 12.7 12.0837 12.0583 12.0837 11.025C12.0837 10.4583 11.792 9.96667 11.2753 9.675C11.6503 9.41667 11.8837 9.03333 11.8837 8.51667C11.8837 7.43333 11.0253 6.875 10.0003 6.875ZM10.0003 9.24167C9.56699 9.24167 9.25033 8.98333 9.25033 8.575C9.25033 8.15833 9.56699 7.91667 10.0003 7.91667C10.4337 7.91667 10.7503 8.15833 10.7503 8.575C10.7503 8.98333 10.4337 9.24167 10.0003 9.24167ZM10.0003 11.6667C9.45033 11.6667 9.05033 11.3917 9.05033 10.8917C9.05033 10.3917 9.45033 10.125 10.0003 10.125C10.5503 10.125 10.9503 10.4 10.9503 10.8917C10.9503 11.3917 10.5503 11.6667 10.0003 11.6667Z" fill="#3D3D3D"/>
</g>
</g>
</svg>
