<svg width="20" height="20" viewBox="0 0 20 20" fill="none" xmlns="http://www.w3.org/2000/svg">
<path d="M9.1835 16.875H6.25016C5.62516 16.875 5.16683 16.85 4.77516 16.7917C2.00016 16.4833 1.4585 14.8333 1.4585 12.0833V7.91667C1.4585 5.16667 2.0085 3.50833 4.80016 3.2C5.16683 3.15 5.62516 3.125 6.25016 3.125H9.1335C9.47516 3.125 9.7585 3.40833 9.7585 3.75C9.7585 4.09167 9.47516 4.375 9.1335 4.375H6.25016C5.6835 4.375 5.2835 4.4 4.9585 4.44167C3.26683 4.625 2.7085 5.15833 2.7085 7.91667V12.0833C2.7085 14.8417 3.26683 15.3667 4.9335 15.5583C5.2835 15.6083 5.6835 15.625 6.25016 15.625H9.1835C9.52516 15.625 9.8085 15.9083 9.8085 16.25C9.8085 16.5917 9.52516 16.875 9.1835 16.875Z" fill="#3D3D3D"/>
<path d="M13.7499 16.875H12.5166C12.1749 16.875 11.8916 16.5917 11.8916 16.25C11.8916 15.9083 12.1749 15.625 12.5166 15.625H13.7499C14.3166 15.625 14.7166 15.6 15.0416 15.5583C16.7333 15.375 17.2916 14.8417 17.2916 12.0833V7.91667C17.2916 5.15833 16.7333 4.63333 15.0666 4.44167C14.7166 4.39167 14.3166 4.375 13.7499 4.375H12.5166C12.1749 4.375 11.8916 4.09167 11.8916 3.75C11.8916 3.40833 12.1749 3.125 12.5166 3.125H13.7499C14.3749 3.125 14.8333 3.15 15.2249 3.20833C17.9999 3.51667 18.5416 5.16667 18.5416 7.91667V12.0833C18.5416 14.8333 17.9916 16.4917 15.1999 16.8C14.8333 16.85 14.3749 16.875 13.7499 16.875Z" fill="#3D3D3D"/>
<path d="M12.5 18.9584C12.1583 18.9584 11.875 18.6751 11.875 18.3334V1.66675C11.875 1.32508 12.1583 1.04175 12.5 1.04175C12.8417 1.04175 13.125 1.32508 13.125 1.66675V18.3334C13.125 18.6751 12.8417 18.9584 12.5 18.9584Z" fill="#3D3D3D"/>
<path d="M6.6665 13.5416C6.32484 13.5416 6.0415 13.2583 6.0415 12.9166V7.08325C6.0415 6.74159 6.32484 6.45825 6.6665 6.45825C7.00817 6.45825 7.2915 6.74159 7.2915 7.08325V12.9166C7.2915 13.2583 7.00817 13.5416 6.6665 13.5416Z" fill="#3D3D3D"/>
</svg>
