<svg width="40" height="41" viewBox="0 0 40 41" fill="none" xmlns="http://www.w3.org/2000/svg">
<path fill-rule="evenodd" clip-rule="evenodd" d="M10.0293 22.6568C16.9295 23.8535 23.8298 23.8133 30.73 22.6568V13.0637C30.73 12.9544 30.6947 12.8481 30.6291 12.7608L26.085 6.702C26.038 6.6393 25.977 6.58841 25.9069 6.55335C25.8368 6.51829 25.7595 6.50002 25.6812 6.5H11.544C11.1423 6.50003 10.7571 6.65963 10.473 6.94368C10.189 7.22773 10.0294 7.61298 10.0293 8.01469V19.6274C10.0293 20.3772 9.85352 21.0128 9.85352 21.5194C9.85352 22.2198 10.0293 22.6568 10.0293 22.6568Z" fill="#D8DFE3"/>
<path fill-rule="evenodd" clip-rule="evenodd" d="M7 21.3477V32.2495C7.00003 32.6512 7.15963 33.0365 7.44368 33.3205C7.72773 33.6046 8.11298 33.7642 8.51469 33.7642H31.74C32.1416 33.7641 32.5269 33.6045 32.8109 33.3205C33.0949 33.0364 33.2545 32.6512 33.2546 32.2495V24.1713C33.2546 23.7696 33.095 23.3843 32.811 23.1003C32.5269 22.8162 32.1417 22.6566 31.74 22.6566H9.01962C8.37546 22.6566 7 21.3477 7 21.3477Z" fill="#1FB35B"/>
<path fill-rule="evenodd" clip-rule="evenodd" d="M8.51469 22.6568C8.05374 22.6568 7.71724 22.4698 7.46955 22.2396C7.23653 22.023 7 21.6411 7 21.1421C7 20.8219 7.15959 20.3551 7.44362 20.0711C7.72766 19.787 8.11299 19.6274 8.51469 19.6274H10.0294V22.6568H8.51469Z" fill="#198043"/>
<path fill-rule="evenodd" clip-rule="evenodd" d="M25.6816 6.5V11.549C25.6817 11.9507 25.8413 12.336 26.1253 12.62C26.4094 12.9041 26.7946 13.0637 27.1963 13.0637H30.7305C30.7305 12.9544 30.6951 12.8481 30.6296 12.7608L26.0855 6.702C26.0385 6.6393 25.9775 6.58841 25.9074 6.55335C25.8373 6.51829 25.76 6.50002 25.6816 6.5Z" fill="#AFBDC7"/>
<path fill-rule="evenodd" clip-rule="evenodd" d="M14.5733 13.5685H21.137C21.4156 13.5685 21.6418 13.3422 21.6418 13.0635C21.6418 12.7848 21.4156 12.5586 21.137 12.5586H14.5733C14.2946 12.5586 14.0684 12.7848 14.0684 13.0635C14.0684 13.3422 14.2946 13.5685 14.5733 13.5685ZM14.5733 16.5978H26.1859C26.4646 16.5978 26.6908 16.3716 26.6908 16.0929C26.6908 15.8142 26.4646 15.588 26.1859 15.588H14.5733C14.2946 15.588 14.0684 15.8142 14.0684 16.0929C14.0684 16.3716 14.2946 16.5978 14.5733 16.5978ZM14.5733 19.6272H26.1859C26.4646 19.6272 26.6908 19.401 26.6908 19.1223C26.6908 18.8436 26.4646 18.6173 26.1859 18.6173H14.5733C14.2946 18.6173 14.0684 18.8436 14.0684 19.1223C14.0684 19.401 14.2946 19.6272 14.5733 19.6272Z" fill="#1FB35B"/>
<path fill-rule="evenodd" clip-rule="evenodd" d="M22.9408 25.8736L24.9604 30.9226C24.9978 31.0164 25.0625 31.0968 25.1461 31.1534C25.2296 31.21 25.3283 31.2403 25.4292 31.2403C25.5301 31.2403 25.6288 31.21 25.7123 31.1534C25.7959 31.0968 25.8606 31.0164 25.898 30.9226L27.9176 25.8736C27.9673 25.7493 27.9655 25.6103 27.9128 25.4872C27.86 25.3642 27.7605 25.2671 27.6362 25.2173C27.5119 25.1677 27.3729 25.1694 27.2499 25.2222C27.1268 25.2749 27.0297 25.3743 26.9799 25.4986L25.4291 29.3756L23.8783 25.4986C23.7749 25.2399 23.4808 25.1139 23.2221 25.2173C22.9633 25.3208 22.8373 25.6149 22.9408 25.8736ZM15.1147 25.1812H14.8262C13.432 25.1812 12.3018 26.3114 12.3018 27.7057V28.7155C12.3018 30.1098 13.432 31.24 14.8262 31.24H15.1147C15.5558 31.24 15.9875 31.1133 16.3586 30.8749C16.7296 30.6365 17.0244 30.2965 17.2078 29.8954C17.26 29.7813 17.2703 29.7597 17.3039 29.6853C17.3593 29.569 17.3678 29.4358 17.3273 29.3134C17.2869 29.1911 17.2008 29.089 17.087 29.0287C16.7705 28.8696 16.4833 29.0459 16.3855 29.2654C16.3558 29.3321 16.2894 29.4757 16.2894 29.4757C16.1865 29.7008 16.021 29.8916 15.8128 30.0253C15.6045 30.1591 15.3622 30.2302 15.1147 30.2302H14.8262C13.9896 30.2302 13.3115 29.552 13.3115 28.7155V27.7057C13.3115 26.8692 13.9896 26.191 14.8262 26.191H15.1147C15.3622 26.191 15.6045 26.2621 15.8128 26.3959C16.021 26.5297 16.1865 26.7204 16.2894 26.9455C16.2894 26.9455 16.3509 27.0834 16.3855 27.1558C16.5372 27.4737 16.8959 27.5189 17.1227 27.3716C17.2821 27.2679 17.4326 27.0174 17.3039 26.7359L17.2078 26.5258C17.0244 26.1247 16.7296 25.7847 16.3586 25.5463C15.9875 25.308 15.5558 25.1812 15.1147 25.1812ZM18.1082 29.476V29.7263C18.1083 30.1277 18.2677 30.5127 18.5516 30.7966C18.8354 31.0804 19.2204 31.2399 19.6218 31.24H20.7599C20.9587 31.24 21.1555 31.2009 21.3392 31.1248C21.5229 31.0487 21.6897 30.9372 21.8303 30.7967C21.9709 30.6561 22.0824 30.4892 22.1584 30.3056C22.2345 30.1219 22.2736 29.9251 22.2736 29.7263V29.5254C22.2736 28.906 21.8965 28.3491 21.3214 28.119L19.4855 27.3847C19.377 27.3413 19.284 27.2664 19.2185 27.1696C19.153 27.0728 19.118 26.9587 19.118 26.8418V26.6959C19.118 26.562 19.1712 26.4336 19.2658 26.3389C19.3605 26.2442 19.4889 26.191 19.6228 26.191H20.7589C20.8252 26.191 20.8909 26.204 20.9522 26.2294C21.0134 26.2547 21.0691 26.2919 21.116 26.3388C21.1629 26.3857 21.2001 26.4414 21.2254 26.5027C21.2508 26.5639 21.2638 26.6296 21.2637 26.6959V26.9453C21.2637 27.0878 21.3268 27.2167 21.3901 27.2822C21.4376 27.3358 21.4959 27.3787 21.5611 27.4082C21.6264 27.4377 21.6971 27.453 21.7687 27.4533C22.0144 27.4533 22.2736 27.2635 22.2736 26.9453V26.6959C22.2736 26.2942 22.114 25.909 21.8299 25.6249C21.5459 25.3409 21.1606 25.1813 20.7589 25.1812H19.6229C19.2212 25.1812 18.8359 25.3408 18.5519 25.6249C18.2678 25.9089 18.1082 26.2942 18.1082 26.6959V26.8418C18.1082 27.4937 18.5052 28.0801 19.1105 28.3222L20.9464 29.0567C21.0401 29.0941 21.1204 29.1588 21.177 29.2423C21.2335 29.3259 21.2638 29.4245 21.2637 29.5254V29.7263C21.2637 29.8599 21.2106 29.988 21.1161 30.0825C21.0217 30.1771 20.8935 30.2302 20.7599 30.2302H19.6218C19.5557 30.2303 19.4901 30.2172 19.429 30.1919C19.3679 30.1666 19.3123 30.1295 19.2655 30.0827C19.2187 30.0359 19.1816 29.9804 19.1563 29.9192C19.131 29.8581 19.118 29.7926 19.118 29.7264V29.4759C19.118 29.1429 18.8465 28.9677 18.6219 28.9677C18.4089 28.9677 18.1082 29.1329 18.1082 29.4729V29.476Z" fill="#D8DFE3"/>
</svg>
