<svg width="16" height="17" viewBox="0 0 16 17" fill="none" xmlns="http://www.w3.org/2000/svg">
<path d="M8.00016 15.6667C4.04683 15.6667 0.833496 12.4534 0.833496 8.50004C0.833496 4.54671 4.04683 1.33337 8.00016 1.33337C11.9535 1.33337 15.1668 4.54671 15.1668 8.50004C15.1668 12.4534 11.9535 15.6667 8.00016 15.6667ZM8.00016 2.33337C4.60016 2.33337 1.8335 5.10004 1.8335 8.50004C1.8335 11.9 4.60016 14.6667 8.00016 14.6667C11.4002 14.6667 14.1668 11.9 14.1668 8.50004C14.1668 5.10004 11.4002 2.33337 8.00016 2.33337Z" fill="#292D32"/>
<path d="M8 9.66671C7.72667 9.66671 7.5 9.44004 7.5 9.16671V5.83337C7.5 5.56004 7.72667 5.33337 8 5.33337C8.27333 5.33337 8.5 5.56004 8.5 5.83337V9.16671C8.5 9.44004 8.27333 9.66671 8 9.66671Z" fill="#292D32"/>
<path d="M8.00016 11.8333C7.9135 11.8333 7.82683 11.8133 7.74683 11.78C7.66683 11.7466 7.5935 11.7 7.52683 11.64C7.46683 11.5733 7.42016 11.5066 7.38683 11.42C7.3535 11.34 7.3335 11.2533 7.3335 11.1666C7.3335 11.08 7.3535 10.9933 7.38683 10.9133C7.42016 10.8333 7.46683 10.76 7.52683 10.6933C7.5935 10.6333 7.66683 10.5866 7.74683 10.5533C7.90683 10.4866 8.0935 10.4866 8.2535 10.5533C8.3335 10.5866 8.40683 10.6333 8.4735 10.6933C8.5335 10.76 8.58016 10.8333 8.6135 10.9133C8.64683 10.9933 8.66683 11.08 8.66683 11.1666C8.66683 11.2533 8.64683 11.34 8.6135 11.42C8.58016 11.5066 8.5335 11.5733 8.4735 11.64C8.40683 11.7 8.3335 11.7466 8.2535 11.78C8.1735 11.8133 8.08683 11.8333 8.00016 11.8333Z" fill="#292D32"/>
</svg>
