<svg width="824" height="1024" viewBox="0 0 824 1024" fill="none" xmlns="http://www.w3.org/2000/svg">
<g clip-path="url(#clip0_11_1369)">
<mask id="mask0_11_1369" style="mask-type:luminance" maskUnits="userSpaceOnUse" x="16" y="0" width="997" height="916">
<path d="M994.345 0H444.612C440.95 45.0173 415.163 128.643 281.199 173.409C91.9993 236.647 0.2878 319.739 19.0767 466.885C37.8657 614.032 170.788 717.386 351.799 746.288C532.84 775.189 587.301 893.654 737.94 910.932C862.197 925.163 941.82 907.539 1012.57 866.323V19.2572C1012.57 8.63905 1004.41 0 994.316 0H994.345Z" fill="white"/>
</mask>
<g mask="url(#mask0_11_1369)">
<path d="M985.946 -422.503H182.225C176.87 -356.751 139.17 -234.605 -56.689 -169.219C-333.303 -76.8534 -467.387 44.5118 -439.917 259.436C-412.447 474.36 -218.112 625.321 46.5297 667.535C311.215 709.749 390.839 882.781 611.076 908.018C792.743 928.803 909.152 903.062 1012.59 842.861V-394.376C1012.59 -409.885 1000.66 -422.503 985.903 -422.503H985.946Z" fill="#EBF1FF"/>
<path d="M271.969 284.586C275.066 278.554 283.522 274.25 293.498 274.25C296.267 274.25 298.917 274.596 301.359 275.224C302.579 271.58 305.736 268.407 310.053 266.239C312.703 252.668 329.914 242.176 350.788 242.176C366.539 242.176 380.207 248.145 387.115 256.909C390.926 255.433 395.363 254.553 400.097 254.553C414.479 254.553 426.122 262.407 426.122 272.083C426.122 272.837 426.033 273.59 425.884 274.344C426.658 274.282 427.432 274.25 428.236 274.25C438.211 274.25 446.668 278.585 449.765 284.586H271.999H271.969Z" fill="white"/>
<path d="M-37.7959 381.971C-34.6991 375.94 -26.2426 371.636 -16.2675 371.636C-13.4983 371.636 -10.8482 371.981 -8.40652 372.61C-7.18569 368.966 -4.02938 365.793 0.2882 363.625C2.9383 350.054 20.1491 339.561 41.0224 339.561C56.7742 339.561 70.4415 345.53 77.3497 354.295C81.1611 352.818 85.5978 351.939 90.3322 351.939C104.714 351.939 116.357 359.792 116.357 369.468C116.357 370.222 116.268 370.976 116.119 371.73C116.893 371.667 117.667 371.636 118.471 371.636C128.446 371.636 136.903 375.971 139.999 381.971H-37.7661H-37.7959Z" fill="white"/>
<path d="M687.589 442.759C690.685 436.727 699.142 432.423 709.117 432.423C711.886 432.423 714.536 432.769 716.978 433.397C718.199 429.753 721.355 426.58 725.673 424.413C728.323 410.841 745.534 400.349 766.407 400.349C782.159 400.349 795.826 406.318 802.734 415.082C806.546 413.606 810.982 412.726 815.717 412.726C830.099 412.726 841.741 420.58 841.741 430.256C841.741 431.01 841.652 431.764 841.503 432.518C842.277 432.455 843.052 432.423 843.856 432.423C853.831 432.423 862.287 436.759 865.384 442.759H687.618H687.589Z" fill="white"/>
<path d="M748.421 233.977C745.295 227.882 736.719 223.484 726.595 223.484C723.796 223.484 721.087 223.83 718.615 224.458C717.394 220.751 714.179 217.547 709.801 215.348C707.092 201.557 689.643 190.938 668.472 190.938C652.482 190.938 638.636 197.001 631.608 205.892C627.738 204.384 623.241 203.504 618.447 203.504C603.857 203.504 592.036 211.484 592.036 221.285C592.036 222.07 592.125 222.824 592.274 223.578C591.5 223.516 590.696 223.484 589.892 223.484C579.768 223.484 571.192 227.882 568.065 233.977H748.451H748.421Z" fill="white"/>
<path d="M726.982 69.018C729.454 64.2115 736.213 60.7559 744.163 60.7559C746.367 60.7559 748.481 61.0387 750.446 61.5099C751.429 58.5883 753.93 56.0751 757.384 54.3473C759.498 43.5092 773.255 35.1215 789.9 35.1215C802.466 35.1215 813.394 39.8966 818.902 46.8706C821.94 45.6769 825.483 44.9857 829.265 44.9857C840.728 44.9857 850.049 51.2687 850.049 58.9967C850.049 59.5936 849.959 60.2219 849.87 60.7873C850.495 60.7559 851.12 60.7245 851.746 60.7245C859.726 60.7245 866.455 64.1801 868.927 68.9866H726.982V69.018Z" fill="white"/>
<path d="M502.529 47.0277C503.63 44.8915 506.608 43.3522 510.151 43.3522C511.134 43.3522 512.057 43.4778 512.95 43.6978C513.367 42.4097 514.499 41.2788 516.017 40.5249C516.97 35.7184 523.045 32.0115 530.429 32.0115C535.997 32.0115 540.851 34.1163 543.293 37.2263C544.633 36.6923 546.211 36.3781 547.878 36.3781C552.97 36.3781 557.079 39.1426 557.079 42.5982C557.079 42.881 557.049 43.1323 556.99 43.3836C557.258 43.3836 557.526 43.3836 557.824 43.3836C561.367 43.3836 564.345 44.9229 565.446 47.0591H502.499L502.529 47.0277Z" fill="white"/>
<path d="M1172.82 734.005H-18.2043V959.311H1172.82V734.005Z" fill="#BDD4FF"/>
<path d="M1172.82 650.913H-18.2043V699.606H1172.82V650.913Z" fill="#BDD4FF"/>
<path opacity="0.1" d="M1012.59 -276.634H-35.1372V942.838H1012.59V-276.634Z" fill="#BBDEFB"/>
<g opacity="0.39">
<path d="M-49.4391 934.713H-96.0989L509.763 -48.8813H556.423L-49.4391 934.713Z" fill="white"/>
<path d="M718.139 934.713H671.479L1277.34 -48.8813H1324L718.139 934.713Z" fill="white"/>
<path d="M631.965 934.713H456.522L1062.38 -48.8813H1237.8L631.965 934.713Z" fill="white"/>
<path d="M-133.736 934.713H-309.179L296.683 -48.8813H472.096L-133.736 934.713Z" fill="white"/>
</g>
<path d="M251.749 -108.883H226.112V930.849H251.749V-108.883Z" fill="white"/>
<path d="M1251.55 176.582V148.906L-114.471 148.906V176.582L1251.55 176.582Z" fill="white"/>
</g>
<path d="M209.84 1005.78C337.881 1005.78 441.679 995.645 441.679 983.146C441.679 970.647 337.881 960.515 209.84 960.515C81.7982 960.515 -22 970.647 -22 983.146C-22 995.645 81.7982 1005.78 209.84 1005.78Z" fill="#EBF1FF"/>
<path d="M304.796 665.383L222.464 686.196C222.464 686.196 243.725 778.629 252.003 812.502C260.489 847.179 255.784 958.756 255.784 958.756H279.337L292.082 812.084L304.826 665.413L304.796 665.383Z" fill="#1B173D"/>
<path d="M286.841 515.163C286.841 515.163 295.238 544.176 308.816 593.404C308.816 593.404 326.294 599.755 373.579 603.125L372.091 618.868C372.091 618.868 319.952 628.32 291.188 616.423C262.424 604.556 238.335 499.241 286.841 515.163Z" fill="#FFA689"/>
<path d="M332.458 616.632L357.112 645.227L396.953 593.285L380.844 562.156L332.458 616.632Z" fill="#4764CF"/>
<path d="M328.111 628.618L369.977 572.443L396.954 593.285L357.113 645.227L328.111 628.618Z" fill="#5172ED"/>
<path d="M390.017 604.824C389.838 603.959 388.736 603.631 387.992 604.109C386.563 605.033 384.835 607.18 380.786 607.299C376.736 607.418 371.436 604.586 369.679 606.434C369.679 606.434 360.925 617.616 369.798 628.678C369.798 628.678 396.657 635.685 390.017 604.824Z" fill="#FFA689"/>
<path d="M270.256 599.099C270.256 599.099 291.189 595.998 308.37 581.179C308.37 581.179 302.295 548.469 293.839 528.73C285.382 508.991 272.042 491.727 250.365 504.578C228.688 517.43 235 546.889 270.256 599.099Z" fill="#4764CF"/>
<path d="M200.341 585.92C200.341 585.92 218.206 597.28 240.866 597.28C240.866 597.28 257.601 568.536 264.062 548.052C270.524 527.597 271.685 505.771 246.881 501.328C222.077 496.885 207.636 523.333 200.311 585.92H200.341Z" fill="#5172ED"/>
<path d="M293.421 674.268C293.421 674.268 242.533 657.064 211 685.539C211 685.539 216.777 712.286 234.196 744.279C263.615 798.398 278.682 815.901 278.682 815.901C278.682 815.901 246.613 844.466 184.826 915.878C184.826 915.878 188.697 930.489 201.144 935.17C201.144 935.17 291.694 849.654 318.999 826.844C327.932 819.389 326.116 813.784 322.602 797.265C316.647 769.296 296.935 687 293.451 674.268H293.421Z" fill="#271F50"/>
<path d="M250.098 462.267L248.996 484.63C248.996 484.63 266.534 499.092 280.976 498.436L287.646 468.619L246.763 440.799L250.098 462.267Z" fill="#FFA689"/>
<path d="M258.554 458.361C258.554 458.361 267.874 475.775 284.877 481.082L287.676 468.589L258.554 458.332V458.361Z" fill="#ED8A6D"/>
<path d="M222.644 766.613L181.076 735.007C178.753 733.217 178.277 729.908 180.063 727.552C181.85 725.226 185.155 724.749 187.507 726.538L229.075 758.145C231.398 759.934 231.874 763.244 230.088 765.599C228.301 767.925 224.996 768.402 222.644 766.613Z" fill="#060412"/>
<path d="M188.043 738.525L96.6594 859.046" stroke="#060412" stroke-width="0.94" stroke-miterlimit="10"/>
<path d="M217.314 760.858L125.93 881.35" stroke="#060412" stroke-width="0.94" stroke-miterlimit="10"/>
<path d="M213.681 519.129C213.681 519.129 169.195 521.365 162.048 546.501C154.902 571.637 155.855 670.422 155.855 670.422C155.855 670.422 165.235 692.875 195.309 695.767C195.309 695.767 211.001 699.405 210.078 666.427C209.185 633.479 213.651 519.129 213.651 519.129H213.681Z" fill="#171032"/>
<path d="M188.638 523.989C188.638 523.989 184.172 527.895 181.79 533.024C173.065 551.809 175.745 602.469 172.053 606.553C168.956 609.953 163.715 610.579 158.534 612.01C156.331 612.606 153.74 611.205 153.859 609.058C155.825 565.734 152.49 529.684 188.638 523.989Z" fill="#211D49"/>
<path d="M156.271 618.123C156.271 618.123 168.242 615.379 170.326 618.242C173.304 622.327 172.142 668.812 168.807 670.094C165.502 671.376 153.83 670.363 153.175 669.379C150.703 665.711 149.155 619.643 156.271 618.152V618.123Z" fill="#211D49"/>
<path d="M306.762 406.211C306.762 406.211 319.089 466.293 300.776 473.628C282.464 480.963 255.665 462.267 249.114 443.244C243.516 427.023 244.112 388.499 306.762 406.211Z" fill="#FFA689"/>
<path d="M288.628 415.633C288.628 415.633 293.601 428.395 283.775 431.407C275.765 433.852 273.442 439.755 273.442 439.755C273.442 439.755 271.805 426.934 263.08 426.457C253.582 425.95 254.118 439.517 262.455 446.196C262.455 446.196 262.455 462.297 250.128 462.297C250.128 462.297 222.316 430.333 234.465 411.041C232.678 405.167 240.986 389.483 262.306 387.486C283.626 385.488 289.76 390.467 305.958 385.428C321.442 380.628 331.655 417.81 288.658 415.663L288.628 415.633Z" fill="#171032"/>
<path opacity="0.22" d="M253.491 669.289L308.37 812.054L191.973 923.989" stroke="white" stroke-width="0.25" stroke-miterlimit="10"/>
<path d="M99.1304 983.057C99.1304 990.422 93.1751 996.415 85.7905 996.415C78.406 996.415 72.4507 990.451 72.4507 983.057C72.4507 975.662 78.406 969.698 85.7905 969.698C93.1751 969.698 99.1304 975.662 99.1304 983.057Z" fill="#060412"/>
<path d="M49.4924 959.501C49.4924 966.866 43.5372 972.859 36.1526 972.859C28.768 972.859 22.8127 966.896 22.8127 959.501C22.8127 952.106 28.768 946.143 36.1526 946.143C43.5372 946.143 49.4924 952.106 49.4924 959.501Z" fill="#060412"/>
<path d="M157.582 856.482C157.582 856.482 161.691 916.117 140.371 949.035C119.051 981.953 87.9348 976.616 87.9348 976.616L94.3368 966.538C94.3368 966.538 116.818 975.751 130.128 940.597C143.468 905.442 140.788 868.946 140.788 868.946L157.552 856.482H157.582Z" fill="#060412"/>
<path d="M132.926 839.635C132.926 839.635 146.266 840.918 156.837 853.62C164.995 863.4 103.924 957.98 90.1969 978.972C88.5592 981.476 85.522 982.639 82.6336 981.864C72.8074 979.24 50.088 972.174 33.5918 959.71C33.5918 959.71 96.6286 848.938 132.926 839.635Z" fill="#171032"/>
<path d="M137.661 840.679C137.661 840.679 87.5176 810.474 60.5996 835.55C42.7338 852.189 8.31215 899.061 -5.02771 917.548C-8.24357 922.021 -7.73736 928.163 -3.80686 932.039C4.79854 940.478 22.8431 953.836 35.5576 960.783C37.4335 961.827 39.7859 961.201 40.9769 959.412C51.8751 942.863 104.014 865.159 137.691 840.649L137.661 840.679Z" fill="#211D49"/>
<path d="M26.595 878.458C24.6297 876.907 21.6819 877.742 20.1633 879.74C13.7911 888.118 -2.13931 909.08 -4.49165 913.046C-9.107 920.798 9.77126 937.198 32.848 949.393C40.0539 953.21 48.8678 936.661 58.158 923.989C64.292 915.61 69.5922 908.245 68.9073 905.532C68.1331 902.61 56.1332 898.853 45.1457 892.054C37.9696 887.582 31.8356 882.602 26.595 878.487V878.458Z" fill="#2E2C60"/>
<path d="M137.661 840.679C137.661 840.679 115.001 824.608 82.8725 824.101C55.5675 823.683 25.5825 871.003 25.5825 871.003C21.7116 875.983 68.4904 904.369 73.7013 897.898C94.3662 872.405 114.584 853.053 124.887 843.72C125.602 843.124 131.14 838.651 137.691 840.679H137.661Z" fill="#2E2C60"/>
<path d="M52.6791 954.671L80.6094 912.479C81.6218 910.959 83.6168 910.392 85.2545 911.197L112.589 924.168C114.316 925.002 114.912 927.149 113.87 928.759L86.8029 969.848C85.2545 972.203 82.2173 973.157 79.597 972.054L54.823 961.708C52.0538 960.545 51.0414 957.175 52.6791 954.671Z" fill="#1C163F"/>
<path d="M242.772 487.463C242.772 487.463 215.437 492.413 211 533.352C206.564 574.291 211 690.161 211 690.161C211 690.161 236.608 700.09 265.64 685.927C284.34 676.803 296.28 676.296 301.342 675.163C303.397 674.686 304.826 672.927 304.856 670.81C304.915 666.337 304.975 657.75 304.945 644.809C304.856 608.641 300.955 547.098 285.412 504.876C285.412 504.876 259.03 488.745 242.802 487.463H242.772Z" fill="#5172ED"/>
<path d="M261.204 562.245C238.395 561.112 221.512 570.266 209.035 584.31C208.797 632.614 211.001 690.161 211.001 690.161C211.001 690.161 226.246 696.035 246.494 692.248C231.993 670.035 231.874 649.669 244.41 624.682C254.444 604.705 261.204 562.245 261.204 562.245Z" fill="#4764CF"/>
<path d="M211.001 533.352C211.001 533.352 232.678 498.018 248.549 503.982C268.053 511.317 272.013 549.066 242.773 588.603L227.2 605.092L223.21 619.763C223.21 619.763 262.872 584.727 272.192 550.676C281.512 516.624 269.274 503.117 252.182 497.273C231.19 490.087 221.125 502.908 208.321 520.62L210.971 533.292L211.001 533.352Z" fill="#171032"/>
<path d="M207.457 569.848C207.457 569.848 200.787 598.771 198.584 635.267C196.708 665.949 196.41 703.728 196.38 714.969C196.38 716.907 195.636 718.756 194.266 720.098C190.634 723.676 183.636 732.532 184.827 746.725C185.244 751.704 187.418 758.592 199.775 762.558C201.472 763.094 205.939 764.973 205.939 756.296C205.939 747.619 209.452 741.775 212.996 738.883C216.539 735.99 220.172 743.624 220.172 749.826C220.172 756.028 224.341 752.092 225.174 747.679C226.008 743.266 225.353 731.398 216.003 719.054C216.003 719.054 215.824 716.877 217.015 702.028C218.177 687.179 220.678 636.907 226.008 624.056C231.338 611.205 246.673 574.559 246.673 574.559L207.517 569.818L207.457 569.848Z" fill="#FFA689"/>
<path d="M200.34 588.782C200.34 588.782 218.206 597.28 240.866 597.28C240.866 597.28 257.6 568.536 264.062 548.052C270.523 527.597 271.684 505.771 246.881 501.328C222.077 496.885 207.635 526.196 200.31 588.782H200.34Z" fill="#5172ED"/>
<path d="M256.231 956.31C256.231 956.31 249.681 965.852 252.897 979.657C253.373 981.715 255.13 983.116 257.065 983.116H327.814C329.273 983.116 330.434 981.745 330.256 980.194C329.779 976.169 326.474 969.162 309.65 967.104C305.035 966.538 300.628 964.808 296.966 961.946C290.921 957.205 281.69 950.705 278.504 952.494C278.504 952.494 268.35 958.636 256.202 956.31H256.231Z" fill="#171032"/>
<path d="M249.264 479.74C246.733 479.83 242.773 487.463 242.773 487.463C242.773 487.463 250.276 493.248 268.47 499.927C276.896 503.028 281.125 507.381 283.06 510.124C283.656 510.959 284.936 510.631 285.055 509.617C285.591 505.562 285.829 498.436 281.869 494.321C281.869 494.321 256.797 487.463 249.204 479.74H249.264Z" fill="#271F50"/>
<path d="M185.185 916.087C185.185 916.087 173.721 917.548 165.532 929.117C164.311 930.847 164.431 933.083 165.741 934.544L212.787 987.47C213.77 988.573 215.557 988.513 216.599 987.351C219.279 984.309 222.286 977.183 212.698 963.228C210.048 959.412 208.41 954.969 208.113 950.317C207.636 942.625 206.356 931.413 202.872 930.221C202.872 930.221 191.557 926.702 185.214 916.087H185.185Z" fill="#171032"/>
<path d="M214.396 746.993L225.502 755.461L224.609 760.411L211.626 753.911L214.396 746.993Z" fill="#060412"/>
<path d="M412.202 157.394L332.913 182.036L272.003 145.731C270.785 145.014 271 143.174 272.361 142.767C279.736 140.473 287.541 139.851 295.178 140.927L412.178 157.394H412.202Z" fill="#BBCDF9"/>
<path d="M288.376 140.449L345.492 174.483L404.111 156.271L295.203 140.951C292.935 140.64 290.668 140.473 288.376 140.473V140.449Z" fill="#AEC1FC"/>
<path d="M145.026 210.645L144.024 210.956C136.553 213.274 128.486 212.605 121.516 209.067L47.9798 171.783C44.9963 170.253 41.5116 169.966 38.3133 170.97L33.2056 172.547C32.227 172.858 31.7496 173.934 32.1315 174.866L58.7203 237.485L62.5868 246.496L147.914 219.966L145.026 210.645Z" fill="#90A5FC"/>
<path d="M221.737 250.439L547.938 149.029C566.651 143.221 584.623 135.31 601.569 125.463L644.484 100.511C645.104 100.153 645.677 99.7224 646.202 99.2205C651.692 93.9385 648.637 84.6651 641.095 83.7091L593.049 77.5666C583.502 76.3477 573.811 77.1842 564.598 80.0523L64.138 235.645C62.9923 236.003 61.9898 236.72 61.2499 237.676C58.9109 240.807 60.3191 245.325 64.0425 246.544L72.7303 249.388C121.087 265.186 173.166 265.544 221.737 250.439Z" fill="#738EE5"/>
<path d="M200.4 238.489L562.093 126.037C582.834 119.584 602.787 110.812 621.547 99.9137L645.821 85.7885C644.556 84.689 642.957 83.9242 641.071 83.6852L593.025 77.5428C583.478 76.3238 573.788 77.1604 564.575 80.0284L64.1147 235.621C62.9691 235.98 61.9666 236.697 61.2267 237.653C59.6753 239.732 59.7946 242.385 61.1312 244.321C107.125 254.455 155.123 252.543 200.376 238.465L200.4 238.489Z" fill="white"/>
<path d="M578.49 92.624L617.06 80.6259L593.001 77.471L575.459 82.9203C572.785 83.7569 571.282 86.601 572.117 89.2779C572.953 91.9547 575.793 93.4605 578.466 92.624H578.49Z" fill="#AEC1FC"/>
<path d="M524.52 113.338L527.575 112.388C528.695 112.04 529.321 110.848 528.973 109.726L528.025 106.668C527.677 105.546 526.487 104.919 525.366 105.267L522.312 106.217C521.191 106.565 520.565 107.757 520.913 108.879L521.861 111.938C522.209 113.059 523.4 113.687 524.52 113.338Z" fill="#AEC1FC"/>
<path d="M503.363 119.974L506.418 119.024C507.538 118.676 508.165 117.484 507.817 116.362L506.868 113.303C506.52 112.181 505.33 111.554 504.21 111.903L501.155 112.852C500.035 113.201 499.408 114.393 499.756 115.515L500.705 118.573C501.053 119.695 502.243 120.322 503.363 119.974Z" fill="#AEC1FC"/>
<path d="M482.223 126.508L485.277 125.558C486.398 125.21 487.024 124.018 486.676 122.896L485.728 119.837C485.38 118.715 484.189 118.088 483.069 118.437L480.015 119.386C478.894 119.735 478.268 120.927 478.616 122.049L479.564 125.107C479.912 126.229 481.102 126.856 482.223 126.508Z" fill="#AEC1FC"/>
<path d="M461.067 133.096L464.121 132.146C465.242 131.798 465.868 130.606 465.52 129.484L464.572 126.425C464.224 125.303 463.034 124.676 461.913 125.024L458.859 125.974C457.738 126.322 457.112 127.514 457.46 128.636L458.408 131.695C458.756 132.817 459.947 133.444 461.067 133.096Z" fill="#AEC1FC"/>
<path d="M439.91 139.612L442.965 138.662C444.085 138.314 444.711 137.122 444.363 136L443.415 132.941C443.067 131.819 441.877 131.192 440.756 131.54L437.702 132.49C436.582 132.838 435.955 134.03 436.303 135.152L437.252 138.211C437.6 139.333 438.79 139.96 439.91 139.612Z" fill="#AEC1FC"/>
<path d="M418.754 146.2L421.808 145.25C422.928 144.901 423.555 143.709 423.207 142.588L422.258 139.529C421.91 138.407 420.72 137.78 419.6 138.128L416.545 139.078C415.425 139.426 414.799 140.618 415.146 141.74L416.095 144.799C416.443 145.921 417.633 146.548 418.754 146.2Z" fill="#AEC1FC"/>
<path d="M397.597 152.835L400.651 151.885C401.772 151.537 402.398 150.345 402.05 149.223L401.102 146.165C400.754 145.043 399.563 144.415 398.443 144.764L395.389 145.714C394.268 146.062 393.642 147.254 393.99 148.376L394.938 151.434C395.286 152.556 396.476 153.184 397.597 152.835Z" fill="#AEC1FC"/>
<path d="M376.464 159.416L379.518 158.466C380.639 158.118 381.265 156.926 380.917 155.804L379.969 152.745C379.621 151.623 378.431 150.996 377.31 151.345L374.256 152.294C373.135 152.643 372.509 153.835 372.857 154.957L373.805 158.015C374.153 159.137 375.344 159.764 376.464 159.416Z" fill="#AEC1FC"/>
<path d="M355.307 165.98L358.362 165.03C359.482 164.682 360.108 163.49 359.76 162.368L358.812 159.309C358.464 158.187 357.274 157.56 356.153 157.908L353.099 158.858C351.979 159.207 351.352 160.398 351.7 161.52L352.649 164.579C352.997 165.701 354.187 166.328 355.307 165.98Z" fill="#AEC1FC"/>
<path d="M334.144 172.497L337.198 171.547C338.319 171.199 338.945 170.007 338.597 168.885L337.649 165.826C337.301 164.704 336.111 164.077 334.99 164.426L331.936 165.375C330.815 165.724 330.189 166.916 330.537 168.038L331.485 171.096C331.833 172.218 333.024 172.845 334.144 172.497Z" fill="#AEC1FC"/>
<path d="M312.987 179.061L316.042 178.111C317.162 177.763 317.788 176.571 317.44 175.449L316.492 172.39C316.144 171.268 314.954 170.641 313.833 170.99L310.779 171.939C309.658 172.288 309.032 173.48 309.38 174.602L310.329 177.66C310.676 178.782 311.867 179.409 312.987 179.061Z" fill="#AEC1FC"/>
<path d="M291.831 185.696L294.885 184.747C296.005 184.398 296.632 183.206 296.284 182.084L295.335 179.026C294.987 177.904 293.797 177.277 292.677 177.625L289.622 178.575C288.502 178.923 287.876 180.115 288.223 181.237L289.172 184.296C289.52 185.418 290.71 186.045 291.831 185.696Z" fill="#AEC1FC"/>
<path d="M270.697 192.277L273.752 191.327C274.872 190.979 275.498 189.787 275.151 188.665L274.202 185.606C273.854 184.485 272.664 183.857 271.544 184.206L268.489 185.155C267.369 185.504 266.742 186.696 267.09 187.818L268.039 190.876C268.387 191.998 269.577 192.625 270.697 192.277Z" fill="#AEC1FC"/>
<path d="M445.904 153.547L323.82 191.501L278.972 288.943C277.731 291.62 280.261 294.488 283.078 293.628L286.061 292.696C294.224 290.162 301.695 285.86 307.996 280.076L445.928 153.547H445.904Z" fill="#BBCDF9"/>
<path d="M304.153 281.797C303.89 282.37 303.819 282.944 303.843 283.494C305.251 282.418 306.635 281.295 307.948 280.076L445.88 153.547L349.382 183.542L304.153 281.773V281.797Z" fill="#AEC1FC"/>
<path d="M103.544 230.076L60.5819 243.436L43.6597 280.172L51.6315 277.686L103.544 230.076Z" fill="#90A5FC"/>
</g>
<defs>
<clipPath id="clip0_11_1369">
<rect width="824" height="1024" fill="white"/>
</clipPath>
</defs>
</svg>
