<svg width="280" height="94" viewBox="0 0 280 94" fill="none" xmlns="http://www.w3.org/2000/svg">
<path d="M106.696 39.7383L59.6162 54.2713L97.7999 45.7644L98.7207 49.4192L106.696 39.7383Z" fill="black"/>
<path d="M87.6862 36.5376L62.2148 48.1202L81.6462 37.328L80.6629 35.4263L87.6862 36.5376Z" fill="black"/>
<path d="M44.6562 57.5348L108.491 37.2417L110.59 42.673L121.82 26.6843L103.364 24L105.432 29.353L44.6562 57.5348Z" fill="#765F5F"/>
<path d="M64.9931 54.6862C64.9618 54.4592 64.7511 54.3027 64.5326 54.334C64.3063 54.3653 64.1503 54.5688 64.1815 54.7957C64.2829 55.5627 64.3375 56.3375 64.3531 57.1201H57.8682C57.8604 56.3923 57.8292 55.6566 57.7746 54.9444C57.759 54.7175 57.5561 54.5531 57.3376 54.5688C57.1113 54.5844 56.9474 54.7879 56.963 55.0149C57.0176 55.7114 57.0489 56.4157 57.0567 57.1279H45.0077V52.0097C51.3911 51.9314 57.322 49.9514 61.1224 46.6566C61.2863 46.8992 61.4424 47.1418 61.5984 47.3923C61.7155 47.5879 61.9652 47.6505 62.1603 47.5331C62.3554 47.4157 62.4178 47.1653 62.3008 46.9697C62.1135 46.6566 61.9184 46.3592 61.7233 46.0618C61.7779 45.921 61.7545 45.7488 61.6453 45.6314C61.5594 45.5453 61.4502 45.5062 61.3409 45.5062C59.7255 43.2601 57.6888 41.3818 55.371 39.9575C55.3164 39.8949 55.2462 39.8557 55.1603 39.8323C52.0076 37.9462 48.3711 36.8896 44.6097 36.8896C40.8483 36.8896 37.1025 37.9696 34.0044 39.8479C33.981 39.8557 33.9654 39.8714 33.9498 39.8792C31.4838 41.3818 29.369 43.3853 27.7224 45.7488C27.7224 45.7488 27.7068 45.7488 27.7068 45.7644C27.6834 45.7879 27.6678 45.8192 27.6522 45.8505C25.3657 49.1766 24.0156 53.207 24.0156 57.5505C24.0156 58.2549 24.0546 58.967 24.1249 59.6636C24.1483 59.8749 24.3278 60.0314 24.5307 60.0314C24.5463 60.0314 24.5619 60.0314 24.5697 60.0314C24.796 60.0079 24.9599 59.8044 24.9365 59.5853C24.8818 59.0531 24.8584 58.5053 24.8428 57.9653H26.3724C26.5987 57.9653 26.7781 57.7853 26.7781 57.5583C26.7781 57.3314 26.5987 57.1514 26.3724 57.1514H24.8428C24.9209 53.2931 26.107 49.701 28.0892 46.6801C29.3144 47.7444 30.7659 48.6757 32.389 49.4427C31.9598 51.0236 31.6477 52.7062 31.476 54.4827C31.4526 54.7097 31.6165 54.9053 31.8428 54.9288C31.8584 54.9288 31.8662 54.9288 31.8818 54.9288C32.0925 54.9288 32.2642 54.7723 32.2876 54.561C32.4515 52.8862 32.748 51.2975 33.1538 49.7949C36.3846 51.1879 40.2084 51.9862 44.1961 52.0331V57.1514H38.3901C38.1638 57.1514 37.9843 57.3314 37.9843 57.5583C37.9843 57.7853 38.1638 57.9653 38.3901 57.9653H44.1961V77.7966C44.1961 78.0236 44.3756 78.2036 44.6019 78.2036C44.8282 78.2036 45.0077 78.0236 45.0077 77.7966V57.9653H57.0489C57.0489 58.5131 57.0332 59.061 56.9942 59.601C56.9786 59.8279 57.1503 60.0236 57.3766 60.0392C57.3844 60.0392 57.3922 60.0392 57.4 60.0392C57.6107 60.0392 57.798 59.8749 57.8058 59.6557C57.8448 59.1001 57.8526 58.5366 57.8604 57.9731H64.361C64.3531 58.5131 64.3219 59.061 64.2673 59.5931C64.2439 59.8201 64.4078 60.0236 64.6341 60.0392C64.6497 60.0392 64.6653 60.0392 64.6731 60.0392C64.8838 60.0392 65.0555 59.8827 65.0789 59.6714C65.1491 58.9749 65.1881 58.2627 65.1881 57.5583C65.1881 56.6114 65.1257 55.6488 64.9931 54.7097V54.6862ZM44.9999 37.7192C47.302 37.8444 49.4948 38.9714 51.3599 40.9044C49.331 41.374 47.1771 41.6244 44.9999 41.6557V37.7192ZM44.1805 41.6557C42.011 41.6244 39.8728 41.3818 37.8517 40.9123C39.7011 39.0027 41.8784 37.8523 44.1805 37.727V41.6557ZM44.9999 42.4775C47.4034 42.4462 49.768 42.1488 51.9842 41.5931C53.5918 43.487 54.9184 45.9992 55.8159 48.9653C52.671 50.3427 48.9174 51.1253 44.9921 51.1801V42.4775H44.9999ZM60.6464 45.9679C59.4836 46.9853 58.1102 47.8775 56.5728 48.621C55.691 45.7488 54.4034 43.2836 52.8504 41.374C53.5762 41.1705 54.2785 40.9357 54.9653 40.6775C57.1659 42.0392 59.109 43.8236 60.6464 45.9679ZM54.0444 40.1375C53.4669 40.341 52.8739 40.521 52.2652 40.6853C51.3989 39.7305 50.4547 38.9401 49.4636 38.3296C51.0634 38.7444 52.6007 39.3549 54.0444 40.1453V40.1375ZM36.8762 40.6696C36.2753 40.5053 35.69 40.3253 35.1203 40.1296C36.5484 39.347 38.078 38.7366 39.6855 38.3218C38.6867 38.9323 37.7424 39.7227 36.8762 40.6775V40.6696ZM28.5418 45.9679C30.0635 43.8549 31.9832 42.047 34.1995 40.6696C34.8784 40.9279 35.5808 41.1549 36.2987 41.3583C34.738 43.2836 33.4738 45.7488 32.5997 48.6131C31.0624 47.8696 29.6967 46.9853 28.5418 45.9679ZM33.3723 48.9731C34.2619 46.0383 35.5964 43.5183 37.2196 41.601C39.4358 42.1488 41.7847 42.4462 44.1805 42.4775V51.1801C40.263 51.1253 36.5172 50.3505 33.3645 48.9731H33.3723Z" fill="black"/>
<path d="M49.6066 73.3726C48.8219 73.3726 48.0676 73.2554 47.3438 73.0211C46.6267 72.7803 45.9976 72.4387 45.4565 71.9961C44.9153 71.547 44.5263 71.0101 44.2896 70.3853L46.6132 69.5653C46.7079 69.8256 46.9007 70.0632 47.1916 70.2779C47.4825 70.4927 47.8376 70.6652 48.257 70.7953C48.6764 70.9255 49.1263 70.9906 49.6066 70.9906C50.1004 70.9906 50.5604 70.919 50.9865 70.7758C51.4195 70.6261 51.7679 70.4211 52.0317 70.1608C52.2955 69.894 52.4274 69.5848 52.4274 69.2334C52.4274 68.8754 52.2887 68.5826 52.0114 68.3548C51.734 68.1205 51.3789 67.935 50.946 67.7983C50.513 67.6616 50.0666 67.5575 49.6066 67.4859C48.5986 67.3362 47.6955 67.1052 46.8973 66.7928C46.0991 66.4804 45.4666 66.0476 44.9998 65.4944C44.5398 64.9412 44.3098 64.2253 44.3098 63.3467C44.3098 62.5202 44.5568 61.7978 45.0506 61.1795C45.5444 60.5612 46.1938 60.0796 46.9988 59.7347C47.8038 59.3898 48.673 59.2173 49.6066 59.2173C50.3845 59.2173 51.1354 59.3344 51.8592 59.5687C52.583 59.803 53.2155 60.1447 53.7567 60.5938C54.3046 61.0428 54.6969 61.583 54.9337 62.2143L52.5999 63.0246C52.5052 62.7642 52.3124 62.5267 52.0215 62.3119C51.7307 62.0972 51.3755 61.9279 50.9561 61.8043C50.5367 61.6741 50.0868 61.609 49.6066 61.609C49.1263 61.6025 48.6697 61.6774 48.2367 61.8336C47.8105 61.9833 47.4622 62.1883 47.1916 62.4486C46.921 62.7089 46.7857 63.0083 46.7857 63.3467C46.7857 63.7828 46.9108 64.1114 47.1611 64.3327C47.4182 64.554 47.7598 64.7167 48.186 64.8208C48.6122 64.9185 49.0857 65.0096 49.6066 65.0942C50.5536 65.2374 51.4296 65.4782 52.2346 65.8166C53.0396 66.155 53.6856 66.6073 54.1727 67.1735C54.6597 67.7332 54.9033 68.4199 54.9033 69.2334C54.9033 70.0599 54.6597 70.7856 54.1727 71.4104C53.6856 72.0286 53.0396 72.5102 52.2346 72.8552C51.4296 73.2001 50.5536 73.3726 49.6066 73.3726Z" fill="#3D3D3D"/>
<path d="M56.9186 73.1188V63.3565H59.3944V64.2253C59.7394 63.8739 60.1521 63.5973 60.6323 63.3955C61.1126 63.1873 61.6301 63.0831 62.1848 63.0831C62.8883 63.0831 63.5344 63.2426 64.1229 63.5615C64.7182 63.8804 65.1917 64.3067 65.5435 64.8404C65.902 64.3067 66.3755 63.8804 66.964 63.5615C67.5526 63.2426 68.1986 63.0831 68.9021 63.0831C69.6462 63.0831 70.3193 63.2589 70.9214 63.6103C71.5302 63.9552 72.0138 64.4206 72.3724 65.0063C72.7377 65.5855 72.9203 66.2331 72.9203 66.949V73.1188H70.4445V67.5836C70.4445 67.2061 70.3464 66.8611 70.1502 66.5487C69.9608 66.2298 69.7037 65.976 69.379 65.7873C69.0611 65.592 68.7026 65.4944 68.3034 65.4944C67.9043 65.4944 67.5424 65.5888 67.2177 65.7775C66.8998 65.9598 66.6427 66.2071 66.4465 66.5195C66.2504 66.8319 66.1523 67.1866 66.1523 67.5836V73.1188H63.6764V67.5836C63.6764 67.1866 63.5817 66.8319 63.3923 66.5195C63.2029 66.2071 62.9458 65.9598 62.6211 65.7775C62.2964 65.5888 61.9345 65.4944 61.5354 65.4944C61.1431 65.4944 60.7845 65.592 60.4598 65.7873C60.1351 65.976 59.8747 66.2298 59.6785 66.5487C59.4891 66.8611 59.3944 67.2061 59.3944 67.5836V73.1188H56.9186Z" fill="#3D3D3D"/>
<path d="M82.4058 63.3565H84.8817V73.1188H82.4058L82.2942 71.9082C82.0168 72.3443 81.6482 72.699 81.1882 72.9723C80.7349 73.2392 80.1972 73.3726 79.5748 73.3726C78.8239 73.3726 78.1204 73.2359 77.4642 72.9626C76.8081 72.6892 76.2297 72.3117 75.7291 71.8301C75.2353 71.3485 74.8463 70.7921 74.5622 70.1608C74.2849 69.5295 74.1462 68.8526 74.1462 68.1302C74.1462 67.4339 74.2781 66.7798 74.5419 66.168C74.8125 65.5563 75.1879 65.0193 75.6682 64.5572C76.1485 64.0952 76.7032 63.734 77.3323 63.4736C77.9614 63.2133 78.6379 63.0831 79.3617 63.0831C80.0314 63.0831 80.6301 63.2263 81.1577 63.5127C81.6921 63.799 82.1454 64.1635 82.5174 64.6061L82.4058 63.3565ZM79.5139 71.0784C80.0416 71.0784 80.5083 70.9515 80.9142 70.6977C81.3201 70.4439 81.638 70.1022 81.868 69.6727C82.098 69.2366 82.213 68.7583 82.213 68.2376C82.213 67.7105 82.098 67.2321 81.868 66.8026C81.638 66.3665 81.3167 66.0216 80.9041 65.7678C80.4982 65.5139 80.0348 65.387 79.5139 65.387C78.9931 65.387 78.5161 65.5172 78.0832 65.7775C77.657 66.0313 77.3154 66.373 77.0584 66.8026C76.8081 67.2321 76.6829 67.7105 76.6829 68.2376C76.6829 68.7648 76.8115 69.2431 77.0685 69.6727C77.3256 70.1022 77.6672 70.4439 78.0934 70.6977C78.5263 70.9515 78.9998 71.0784 79.5139 71.0784Z" fill="#3D3D3D"/>
<path d="M86.9138 73.1188L86.9036 63.3565H89.3795L89.3896 64.2253C89.7346 63.8739 90.1473 63.5973 90.6275 63.3955C91.1078 63.1873 91.6253 63.0831 92.18 63.0831C92.5521 63.0831 92.9241 63.1352 93.2962 63.2393L92.3221 65.6409C92.065 65.5432 91.808 65.4944 91.5509 65.4944C91.1518 65.4944 90.7865 65.5888 90.455 65.7775C90.1303 65.9598 89.8699 66.2103 89.6737 66.5292C89.4843 66.8416 89.3896 67.1898 89.3896 67.5738V73.1188H86.9138Z" fill="#3D3D3D"/>
<path d="M100.151 65.7385H98.1823V73.1188H95.7064V65.7385H94.2047V63.3565H95.7064V60.2911H98.1823V63.3565H100.151V65.7385Z" fill="#3D3D3D"/>
<path d="M111.609 59.4516H114.461L119.625 73.1188H116.997L116.084 70.6977H109.996L109.083 73.1188H106.455L111.609 59.4516ZM110.899 68.3157H115.171L113.03 62.6829L110.899 68.3157Z" fill="#3D3D3D"/>
<path d="M121.09 63.3565H123.566V73.1188H121.09V63.3565ZM122.348 62.0972C121.983 62.0972 121.675 61.9833 121.425 61.7555C121.175 61.5212 121.05 61.2283 121.05 60.8769C121.05 60.5319 121.175 60.2423 121.425 60.008C121.675 59.7737 121.98 59.6566 122.338 59.6566C122.697 59.6566 122.998 59.7737 123.241 60.008C123.492 60.2423 123.617 60.5319 123.617 60.8769C123.617 61.2283 123.495 61.5212 123.251 61.7555C123.008 61.9833 122.707 62.0972 122.348 62.0972Z" fill="#3D3D3D"/>
<path d="M125.936 73.1188L125.926 63.3565H128.402L128.412 64.2253C128.757 63.8739 129.169 63.5973 129.65 63.3955C130.13 63.1873 130.648 63.0831 131.202 63.0831C131.574 63.0831 131.946 63.1352 132.318 63.2393L131.344 65.6409C131.087 65.5432 130.83 65.4944 130.573 65.4944C130.174 65.4944 129.809 65.5888 129.477 65.7775C129.153 65.9598 128.892 66.2103 128.696 66.5292C128.507 66.8416 128.412 67.1898 128.412 67.5738V73.1188H125.936Z" fill="#3D3D3D"/>
<path d="M136.27 77.9999H133.794V63.3565H136.27V64.5963C136.601 64.1537 137.007 63.7958 137.487 63.5224C137.974 63.2426 138.542 63.1027 139.192 63.1027C139.936 63.1027 140.629 63.2361 141.272 63.5029C141.915 63.7698 142.479 64.1407 142.967 64.6158C143.46 65.0844 143.843 65.6278 144.113 66.2461C144.39 66.8644 144.529 67.5282 144.529 68.2376C144.529 68.947 144.39 69.6141 144.113 70.2389C143.843 70.8637 143.46 71.4136 142.967 71.8887C142.479 72.3573 141.915 72.725 141.272 72.9918C140.629 73.2587 139.936 73.3921 139.192 73.3921C138.542 73.3921 137.974 73.2554 137.487 72.9821C137.007 72.7022 136.601 72.341 136.27 71.8985V77.9999ZM139.161 65.3968C138.647 65.3968 138.187 65.527 137.781 65.7873C137.376 66.0411 137.058 66.3828 136.828 66.8123C136.598 67.2419 136.483 67.717 136.483 68.2376C136.483 68.7583 136.598 69.2366 136.828 69.6727C137.058 70.1022 137.376 70.4472 137.781 70.7075C138.187 70.9613 138.647 71.0882 139.161 71.0882C139.682 71.0882 140.159 70.9613 140.592 70.7075C141.025 70.4537 141.37 70.112 141.627 69.6824C141.884 69.2464 142.013 68.7648 142.013 68.2376C142.013 67.717 141.884 67.2419 141.627 66.8123C141.37 66.3828 141.025 66.0411 140.592 65.7873C140.166 65.527 139.689 65.3968 139.161 65.3968Z" fill="#3D3D3D"/>
<path d="M150.625 73.3726C149.691 73.3726 148.839 73.1415 148.068 72.6795C147.303 72.2174 146.691 71.5991 146.231 70.8246C145.778 70.0436 145.551 69.1813 145.551 68.2376C145.551 67.5217 145.683 66.8546 145.947 66.2364C146.211 65.6116 146.573 65.0649 147.033 64.5963C147.5 64.1212 148.041 63.7502 148.656 63.4834C149.272 63.2166 149.928 63.0831 150.625 63.0831C151.558 63.0831 152.407 63.3142 153.172 63.7763C153.943 64.2383 154.555 64.8599 155.008 65.6409C155.468 66.4218 155.698 67.2874 155.698 68.2376C155.698 68.947 155.567 69.6108 155.303 70.2291C155.039 70.8474 154.674 71.3941 154.207 71.8692C153.747 72.3378 153.209 72.7055 152.593 72.9723C151.985 73.2392 151.328 73.3726 150.625 73.3726ZM150.625 70.9906C151.119 70.9906 151.562 70.8637 151.954 70.6099C152.347 70.356 152.654 70.0209 152.878 69.6043C153.108 69.1878 153.223 68.7322 153.223 68.2376C153.223 67.73 153.104 67.2679 152.867 66.8514C152.637 66.4283 152.323 66.0932 151.924 65.8459C151.531 65.592 151.098 65.4651 150.625 65.4651C150.138 65.4651 149.698 65.592 149.306 65.8459C148.913 66.0997 148.602 66.4381 148.372 66.8611C148.142 67.2842 148.027 67.743 148.027 68.2376C148.027 68.7518 148.146 69.2171 148.382 69.6336C148.619 70.0501 148.934 70.3821 149.326 70.6294C149.725 70.8702 150.158 70.9906 150.625 70.9906Z" fill="#3D3D3D"/>
<path d="M157.288 73.1188L157.278 63.3565H159.754L159.764 64.2253C160.109 63.8739 160.522 63.5973 161.002 63.3955C161.483 63.1873 162 63.0831 162.555 63.0831C162.927 63.0831 163.299 63.1352 163.671 63.2393L162.697 65.6409C162.44 65.5432 162.183 65.4944 161.926 65.4944C161.527 65.4944 161.161 65.5888 160.83 65.7775C160.505 65.9598 160.245 66.2103 160.048 66.5292C159.859 66.8416 159.764 67.1898 159.764 67.5738V73.1188H157.288Z" fill="#3D3D3D"/>
<path d="M170.525 65.7385H168.557V73.1188H166.081V65.7385H164.579V63.3565H166.081V60.2911H168.557V63.3565H170.525V65.7385Z" fill="#3D3D3D"/>
<path d="M175.195 73.2945C174.667 73.2619 174.156 73.1611 173.663 72.9918C173.176 72.8161 172.743 72.5786 172.364 72.2792C171.985 71.9798 171.694 71.6219 171.491 71.2054L173.581 70.3463C173.663 70.4764 173.795 70.6164 173.977 70.7661C174.16 70.9092 174.376 71.0296 174.627 71.1273C174.884 71.2249 175.164 71.2737 175.469 71.2737C175.726 71.2737 175.969 71.2411 176.199 71.1761C176.436 71.1045 176.626 70.9971 176.768 70.8539C176.916 70.7107 176.991 70.5252 176.991 70.2975C176.991 70.0567 176.903 69.8712 176.727 69.741C176.558 69.6043 176.341 69.5035 176.078 69.4384C175.821 69.3668 175.57 69.3017 175.327 69.2431C174.684 69.1195 174.085 68.9275 173.531 68.6672C172.983 68.4068 172.54 68.0717 172.201 67.6616C171.87 67.2451 171.704 66.744 171.704 66.1583C171.704 65.5139 171.88 64.9575 172.232 64.4889C172.59 64.0203 173.054 63.6591 173.622 63.4053C174.197 63.1515 174.816 63.0246 175.479 63.0246C176.284 63.0246 177.021 63.1873 177.691 63.5127C178.367 63.8316 178.902 64.2839 179.294 64.8696L177.336 65.9825C177.241 65.8263 177.109 65.6832 176.94 65.553C176.771 65.4163 176.578 65.3057 176.362 65.2211C176.145 65.13 175.919 65.0779 175.682 65.0649C175.377 65.0519 175.1 65.0779 174.85 65.143C174.6 65.2081 174.397 65.3187 174.241 65.4749C174.092 65.6311 174.018 65.8394 174.018 66.0997C174.018 66.347 174.119 66.5325 174.322 66.6561C174.525 66.7733 174.769 66.8644 175.053 66.9295C175.344 66.9946 175.621 67.0661 175.885 67.1442C176.48 67.333 177.038 67.564 177.559 67.8374C178.087 68.1107 178.51 68.4459 178.827 68.8429C179.145 69.2399 179.298 69.715 179.284 70.2682C179.284 70.8995 179.088 71.4527 178.696 71.9278C178.303 72.3963 177.796 72.7543 177.173 73.0016C176.558 73.2489 175.898 73.3465 175.195 73.2945Z" fill="#3D3D3D"/>
</svg>
