<svg width="48" height="48" viewBox="0 0 48 48" fill="none" xmlns="http://www.w3.org/2000/svg">
<g filter="url(#filter0_d_820_23553)">
<rect x="4" width="40" height="40" rx="20" fill="#FFB41F" shape-rendering="crispEdges"/>
<path d="M21.633 19.6837C21.608 19.6837 21.5913 19.6837 21.5663 19.6837C21.5247 19.6753 21.4663 19.6753 21.4163 19.6837C18.9997 19.6087 17.1747 17.7087 17.1747 15.367C17.1747 12.9837 19.1163 11.042 21.4997 11.042C23.883 11.042 25.8247 12.9837 25.8247 15.367C25.8163 17.7087 23.983 19.6087 21.658 19.6837C21.6497 19.6837 21.6413 19.6837 21.633 19.6837ZM21.4997 12.292C19.808 12.292 18.4247 13.6753 18.4247 15.367C18.4247 17.0337 19.7247 18.3753 21.383 18.4337C21.433 18.4253 21.5413 18.4253 21.6497 18.4337C23.283 18.3587 24.5663 17.017 24.5747 15.367C24.5747 13.6753 23.1913 12.292 21.4997 12.292Z" fill="white"/>
<path d="M27.783 19.7913C27.758 19.7913 27.733 19.7913 27.708 19.783C27.3663 19.8163 27.0163 19.5747 26.983 19.233C26.9496 18.8913 27.158 18.583 27.4996 18.5413C27.5996 18.533 27.708 18.533 27.7996 18.533C29.0163 18.4663 29.9663 17.4663 29.9663 16.2413C29.9663 14.9747 28.9413 13.9497 27.6746 13.9497C27.333 13.958 27.0496 13.6747 27.0496 13.333C27.0496 12.9913 27.333 12.708 27.6746 12.708C29.6246 12.708 31.2163 14.2997 31.2163 16.2497C31.2163 18.1663 29.7163 19.7163 27.808 19.7913C27.7996 19.7913 27.7913 19.7913 27.783 19.7913Z" fill="white"/>
<path d="M21.6413 28.7913C20.008 28.7913 18.3663 28.3747 17.1247 27.5413C15.9663 26.7747 15.333 25.7247 15.333 24.583C15.333 23.4413 15.9663 22.383 17.1247 21.608C19.6247 19.9497 23.6747 19.9497 26.158 21.608C27.308 22.3747 27.9497 23.4247 27.9497 24.5663C27.9497 25.708 27.3163 26.7663 26.158 27.5413C24.908 28.3747 23.2747 28.7913 21.6413 28.7913ZM17.8163 22.658C17.0163 23.1913 16.583 23.8747 16.583 24.5913C16.583 25.2997 17.0247 25.983 17.8163 26.508C19.8913 27.8997 23.3913 27.8997 25.4663 26.508C26.2663 25.9747 26.6997 25.2913 26.6997 24.5747C26.6997 23.8663 26.258 23.183 25.4663 22.658C23.3913 21.2747 19.8913 21.2747 17.8163 22.658Z" fill="white"/>
<path d="M29.283 27.2917C28.9913 27.2917 28.733 27.0917 28.6746 26.7917C28.608 26.45 28.8246 26.125 29.158 26.05C29.683 25.9417 30.1663 25.7333 30.5413 25.4417C31.0163 25.0833 31.2746 24.6333 31.2746 24.1583C31.2746 23.6833 31.0163 23.2333 30.5496 22.8833C30.183 22.6 29.7246 22.4 29.183 22.275C28.8496 22.2 28.633 21.8667 28.708 21.525C28.783 21.1917 29.1163 20.975 29.458 21.05C30.1746 21.2083 30.7996 21.4917 31.308 21.8833C32.083 22.4667 32.5246 23.2917 32.5246 24.1583C32.5246 25.025 32.0746 25.85 31.2996 26.4417C30.783 26.8417 30.133 27.1333 29.4163 27.275C29.3663 27.2917 29.3246 27.2917 29.283 27.2917Z" fill="white"/>
</g>
<defs>
<filter id="filter0_d_820_23553" x="0" y="0" width="48" height="48" filterUnits="userSpaceOnUse" color-interpolation-filters="sRGB">
<feFlood flood-opacity="0" result="BackgroundImageFix"/>
<feColorMatrix in="SourceAlpha" type="matrix" values="0 0 0 0 0 0 0 0 0 0 0 0 0 0 0 0 0 0 127 0" result="hardAlpha"/>
<feOffset dy="4"/>
<feGaussianBlur stdDeviation="2"/>
<feComposite in2="hardAlpha" operator="out"/>
<feColorMatrix type="matrix" values="0 0 0 0 0 0 0 0 0 0 0 0 0 0 0 0 0 0 0.25 0"/>
<feBlend mode="normal" in2="BackgroundImageFix" result="effect1_dropShadow_820_23553"/>
<feBlend mode="normal" in="SourceGraphic" in2="effect1_dropShadow_820_23553" result="shape"/>
</filter>
</defs>
</svg>
