<svg width="20" height="20" viewBox="0 0 20 20" fill="none" xmlns="http://www.w3.org/2000/svg">
<path d="M13.3002 17.7666C13.1419 17.7666 12.9836 17.7083 12.8586 17.5833L11.5919 16.3166C11.3502 16.0749 11.3502 15.6749 11.5919 15.4333C11.8336 15.1916 12.2336 15.1916 12.4752 15.4333L13.3002 16.2583L15.3919 14.1666C15.6336 13.9249 16.0336 13.9249 16.2752 14.1666C16.5169 14.4083 16.5169 14.8083 16.2752 15.0499L13.7419 17.5833C13.6169 17.7083 13.4586 17.7666 13.3002 17.7666Z" fill="#3D3D3D"/>
<path d="M10.1333 9.68341C10.1083 9.68341 10.0916 9.68341 10.0666 9.68341C10.0249 9.67508 9.96658 9.67508 9.91658 9.68341C7.49992 9.60841 5.67492 7.70841 5.67492 5.36675C5.66659 4.21675 6.11658 3.13341 6.93325 2.31675C7.74992 1.50008 8.83325 1.04175 9.99158 1.04175C12.3749 1.04175 14.3166 2.98341 14.3166 5.36675C14.3166 7.70841 12.4916 9.60008 10.1583 9.68341C10.1499 9.68341 10.1416 9.68341 10.1333 9.68341ZM9.99158 2.29175C9.16658 2.29175 8.39992 2.61675 7.81659 3.19175C7.24159 3.77508 6.92492 4.54175 6.92492 5.35841C6.92492 7.02508 8.22492 8.37508 9.88325 8.42508C9.93325 8.41675 10.0416 8.41675 10.1499 8.42508C11.7916 8.35008 13.0666 7.00841 13.0666 5.35841C13.0666 3.67508 11.6833 2.29175 9.99158 2.29175Z" fill="#3D3D3D"/>
<path d="M9.99196 18.8001C8.29196 18.8001 6.68363 18.3584 5.46696 17.5417C4.30863 16.7667 3.67529 15.7084 3.67529 14.5667C3.67529 13.4251 4.31696 12.3751 5.46696 11.6084C7.95863 9.94173 12.0086 9.94173 14.5003 11.6084C14.7836 11.8001 14.867 12.1917 14.6753 12.4751C14.4836 12.7667 14.092 12.8417 13.8086 12.6501C11.7336 11.2667 8.23363 11.2667 6.15863 12.6501C5.35863 13.1834 4.92529 13.8584 4.92529 14.5667C4.92529 15.2751 5.35863 15.9667 6.15863 16.5001C7.16696 17.1751 8.52529 17.5417 9.98363 17.5417C10.3253 17.5417 10.6086 17.8251 10.6086 18.1667C10.6086 18.5084 10.3336 18.8001 9.99196 18.8001Z" fill="#3D3D3D"/>
</svg>
