<svg width="252" height="254" viewBox="0 0 252 254" fill="none" xmlns="http://www.w3.org/2000/svg">
<g id="Upload svg" clip-path="url(#clip0_721_17290)">
<path id="Vector" d="M16.7223 173.732C6.23054 158.565 0.279459 140.558 0.012779 121.962C-0.606491 78.9843 22.2081 37.7976 61.1487 15.8937C115.868 -14.8832 185.171 2.12899 212.684 40.4761C257.901 103.499 195.196 231.029 116.666 234.897C80.3121 236.688 43.0896 211.852 16.7223 173.732Z" fill="#ECF3FE"/>
<path id="Vector_2" d="M190.458 237.56C189.561 237.56 188.661 237.405 187.793 237.091L67.6188 193.754C65.6483 193.044 64.0732 191.609 63.1837 189.714C62.2924 187.819 62.1939 185.69 62.9045 183.722L116.606 34.8994C118.073 30.8342 122.575 28.7193 126.641 30.1865L246.815 73.5239C248.786 74.2342 250.361 75.6692 251.252 77.564C252.143 79.4588 252.242 81.588 251.531 83.5562L197.83 232.379C197.12 234.349 195.684 235.923 193.789 236.812C192.729 237.31 191.596 237.56 190.46 237.56H190.458ZM123.987 30.8074C121.22 30.8074 118.619 32.5197 117.628 35.268L63.9265 184.09C63.3144 185.787 63.4003 187.621 64.1663 189.252C64.9341 190.884 66.2908 192.121 67.9875 192.732L188.162 236.07C189.858 236.682 191.693 236.596 193.325 235.83C194.958 235.062 196.194 233.706 196.806 232.01L250.508 83.1876C251.12 81.4914 251.034 79.6574 250.268 78.0256C249.5 76.3938 248.143 75.1574 246.447 74.5455L126.272 31.2082C125.519 30.9362 124.746 30.8074 123.987 30.8074Z" fill="#545454"/>
<path id="Vector_3" d="M87.1919 209.288C83.4441 204.989 78.7065 198.914 72.0592 201.618C69.4657 202.674 67.5471 204.987 66.8687 207.655C66.1099 210.641 67.2195 213.522 68.6854 216.034C72.4046 222.4 77.765 227.786 82.5689 233.327C83.802 234.749 85.037 236.174 86.2702 237.596C86.9449 238.374 88.2479 237.347 87.5695 236.565C83.3367 231.683 79 226.871 74.8942 221.881C72.8574 219.405 70.8188 216.8 69.4049 213.905C68.1986 211.436 67.7243 208.666 69.2152 206.112C70.6363 203.677 73.4409 202.287 76.2061 202.62C79.0805 202.965 81.1567 205.143 83.0038 207.12C87.4443 211.874 91.4838 216.984 95.323 222.232C99.1495 227.462 102.781 232.831 106.434 238.181C108.097 240.616 110.105 243.018 111.419 245.666C111.898 246.634 112.29 247.761 111.895 248.85C111.381 250.266 109.632 251.541 108.242 251.991C105.738 252.799 103.336 251.058 101.632 249.504C99.359 247.43 97.349 245.039 95.4053 242.663C91.346 237.703 87.5141 232.552 83.598 227.48C81.7545 225.091 79.0358 222.28 79.1933 218.999C79.2559 217.698 79.8394 216.266 80.9079 215.433C82.2449 214.388 83.8378 214.78 85.139 215.569C88.1065 217.372 90.2006 220.444 92.1121 223.25C94.1524 226.243 96.1695 229.255 98.1974 232.257C98.7755 233.114 100.073 232.078 99.4968 231.226C97.4295 228.165 95.3766 225.093 93.2897 222.042C91.3764 219.246 89.2824 216.349 86.4205 214.432C84.2727 212.994 81.5057 212.552 79.4582 214.586C77.5538 216.478 77.1977 219.271 77.9601 221.672C78.9535 224.799 81.427 227.385 83.3886 229.924C85.6634 232.869 87.9347 235.818 90.2113 238.761C92.4969 241.719 94.8021 244.669 97.3168 247.437C99.2498 249.564 101.303 251.885 103.973 253.127C106.545 254.322 109.201 253.798 111.415 251.953C113.717 250.035 114.22 247.58 112.936 245.005C111.454 242.033 109.23 239.341 107.363 236.607C105.242 233.501 103.126 230.389 100.973 227.304C96.6456 221.101 92.1622 214.994 87.1883 209.29L87.1919 209.288Z" fill="#545454"/>
<g id="Group">
<path id="Vector_4" d="M196.549 226.9L72.0968 198.05C68.1717 197.14 65.7269 193.221 66.6361 189.295L102.386 35.1751C103.297 31.2513 107.216 28.8072 111.143 29.7161L235.595 58.5659C239.52 59.4767 241.965 63.3951 241.055 67.3207L205.306 221.441C204.395 225.365 200.475 227.809 196.549 226.9Z" fill="#F9C067"/>
<path id="Vector_5" d="M169.352 66.4814L115.583 54.0175C114.092 53.6722 113.165 52.1836 113.511 50.6949C113.856 49.2045 115.345 48.2776 116.834 48.623L170.603 61.0869C172.094 61.4322 173.021 62.9208 172.676 64.4095C172.331 65.8999 170.841 66.8268 169.352 66.4814Z" fill="#EAA244"/>
<path id="Vector_6" d="M217.022 95.1807L111.699 70.7646C110.209 70.4193 109.281 68.9306 109.627 67.442C109.972 65.9515 111.461 65.0247 112.951 65.37L218.273 89.7861C219.764 90.1314 220.691 91.6201 220.346 93.1087C220 94.5992 218.511 95.526 217.022 95.1807Z" fill="#EAA244"/>
<path id="Vector_7" d="M213.136 111.93L107.814 87.5156C106.323 87.1703 105.396 85.6816 105.741 84.193C106.087 82.7025 107.576 81.7757 109.065 82.121L214.387 106.537C215.878 106.882 216.805 108.371 216.46 109.86C216.114 111.35 214.625 112.277 213.136 111.932V111.93Z" fill="#EAA244"/>
<path id="Vector_8" d="M209.252 128.679L103.93 104.265C102.439 103.919 101.512 102.431 101.857 100.942C102.203 99.4515 103.692 98.5247 105.181 98.87L210.503 123.284C211.994 123.63 212.921 125.118 212.576 126.607C212.231 128.097 210.742 129.024 209.252 128.679Z" fill="#EAA244"/>
<path id="Vector_9" d="M205.367 145.429L100.045 121.015C98.5538 120.669 97.6267 119.181 97.9721 117.692C98.3175 116.202 99.8067 115.275 101.296 115.62L206.618 140.034C208.109 140.38 209.036 141.868 208.691 143.357C208.345 144.847 206.856 145.774 205.367 145.429Z" fill="#EAA244"/>
<path id="Vector_10" d="M201.483 162.176L96.1604 137.76C94.6695 137.414 93.7424 135.926 94.0878 134.437C94.4333 132.947 95.9224 132.02 97.4115 132.365L202.734 156.781C204.225 157.127 205.152 158.615 204.807 160.104C204.461 161.594 202.972 162.521 201.483 162.176Z" fill="#EAA244"/>
<path id="Vector_11" d="M197.598 178.925L92.2752 154.511C90.7843 154.165 89.8571 152.677 90.2026 151.188C90.548 149.698 92.0371 148.771 93.5262 149.116L198.849 173.53C200.34 173.876 201.267 175.364 200.921 176.853C200.576 178.343 199.087 179.27 197.598 178.925Z" fill="#EAA244"/>
<path id="Vector_12" d="M193.712 195.674L88.3894 171.26C86.8985 170.914 85.9714 169.426 86.3168 167.937C86.6623 166.447 88.1514 165.52 89.6405 165.865L194.963 190.281C196.454 190.627 197.381 192.115 197.036 193.604C196.69 195.094 195.201 196.021 193.712 195.676V195.674Z" fill="#EAA244"/>
<path id="Vector_13" d="M189.828 212.423L84.5056 188.009C83.0147 187.663 82.0876 186.175 82.433 184.686C82.7785 183.196 84.2676 182.269 85.7567 182.614L191.079 207.028C192.57 207.374 193.497 208.862 193.152 210.351C192.806 211.842 191.317 212.768 189.828 212.423Z" fill="#EAA244"/>
</g>
<g id="Group_2">
<path id="Vector_14" d="M138.778 32.3632L12.7141 53.0683C8.73743 53.7215 6.04332 57.4737 6.69667 61.4492L32.3535 217.565C33.0068 221.541 36.7602 224.234 40.7369 223.581L166.801 202.876C170.778 202.222 173.472 198.47 172.818 194.495L147.162 38.3788C146.508 34.4033 142.755 31.71 138.778 32.3632Z" fill="#3B82F4"/>
<path id="Vector_15" d="M80.5447 64.9L26.0794 73.8463C24.5706 74.095 23.1441 73.0715 22.8971 71.5632C22.6483 70.0549 23.6721 68.6288 25.1809 68.3819L79.6462 59.4357C81.155 59.187 82.5815 60.2104 82.8285 61.7188C83.0773 63.2271 82.0535 64.6531 80.5447 64.9Z" fill="#B3CEF6"/>
<path id="Vector_16" d="M135.556 73.2877L28.8679 90.8098C27.3591 91.0585 25.9327 90.0351 25.6857 88.5267C25.4369 87.0184 26.4607 85.5924 27.9695 85.3455L134.658 67.8234C136.166 67.5747 137.593 68.5981 137.84 70.1065C138.089 71.6148 137.065 73.0408 135.556 73.2877Z" fill="#B3CEF6"/>
<path id="Vector_17" d="M138.343 90.2536L31.6546 107.776C30.1458 108.024 28.7193 107.001 28.4723 105.493C28.2235 103.984 29.2473 102.558 30.7561 102.311L137.444 84.7892C138.953 84.5405 140.379 85.5639 140.626 87.0723C140.875 88.5806 139.851 90.0066 138.343 90.2536Z" fill="#B3CEF6"/>
<path id="Vector_18" d="M141.131 107.219L34.4431 124.741C32.9343 124.99 31.5079 123.967 31.2609 122.458C31.0121 120.95 32.0359 119.524 33.5447 119.277L140.233 101.755C141.742 101.506 143.168 102.53 143.415 104.038C143.664 105.546 142.64 106.972 141.131 107.219Z" fill="#B3CEF6"/>
<path id="Vector_19" d="M143.92 124.185L37.2317 141.707C35.7229 141.956 34.2964 140.933 34.0495 139.424C33.8007 137.916 34.8244 136.49 36.3332 136.243L143.021 118.721C144.53 118.472 145.957 119.496 146.204 121.004C146.452 122.512 145.429 123.938 143.92 124.185Z" fill="#B3CEF6"/>
<path id="Vector_20" d="M146.708 141.151L40.0203 158.673C38.5115 158.922 37.085 157.898 36.838 156.39C36.5892 154.882 37.613 153.456 39.1218 153.209L145.81 135.687C147.319 135.438 148.745 136.461 148.992 137.97C149.241 139.478 148.217 140.904 146.708 141.151Z" fill="#B3CEF6"/>
<path id="Vector_21" d="M149.496 158.116L42.8084 175.638C41.2996 175.887 39.8731 174.863 39.6261 173.355C39.3773 171.847 40.4011 170.421 41.9099 170.174L148.598 152.651C150.107 152.403 151.533 153.426 151.78 154.935C152.029 156.443 151.005 157.869 149.496 158.116Z" fill="#B3CEF6"/>
<path id="Vector_22" d="M152.284 175.082L45.5955 192.604C44.0867 192.852 42.6602 191.829 42.4132 190.321C42.1644 188.812 43.1882 187.386 44.697 187.139L151.385 169.617C152.894 169.369 154.32 170.392 154.567 171.9C154.816 173.409 153.792 174.835 152.284 175.082Z" fill="#B3CEF6"/>
<path id="Vector_23" d="M155.072 192.047L48.3836 209.57C46.8748 209.818 45.4483 208.795 45.2013 207.287C44.9525 205.778 45.9763 204.352 47.4851 204.105L154.173 186.583C155.682 186.334 157.108 187.358 157.355 188.866C157.604 190.375 156.58 191.801 155.072 192.047Z" fill="#B3CEF6"/>
</g>
<path id="Vector_24" d="M67.9858 206.524C63.855 206.524 60.3863 203.282 60.1608 199.11L51.6181 41.1316C51.5054 39.0418 52.2123 37.0307 53.612 35.474C55.0116 33.9156 56.932 32.9959 59.0243 32.8832L186.592 25.9892C188.683 25.8765 190.694 26.5832 192.252 27.9824C193.81 29.3816 194.73 31.3015 194.843 33.3931L203.386 191.371C203.619 195.687 200.297 199.387 195.98 199.621L68.4118 206.515C68.2686 206.522 68.1254 206.526 67.984 206.526L67.9858 206.524ZM187.025 27.0628C186.902 27.0628 186.777 27.0663 186.653 27.0735L59.0852 33.9675C57.2846 34.0641 55.6291 34.8567 54.4227 36.2004C53.2182 37.5424 52.6079 39.2726 52.7045 41.0743L61.2472 199.052C61.4477 202.77 64.6371 205.631 68.3563 205.429L195.924 198.535C199.643 198.335 202.503 195.146 202.303 191.428L193.76 33.4504C193.664 31.6504 192.871 29.9953 191.527 28.7894C190.277 27.6675 188.69 27.0628 187.023 27.0628H187.025Z" fill="#545454"/>
<g id="Group_3">
<path id="Vector_25" d="M179.959 31.9647L80.2619 20.2362C76.1113 19.7477 72.351 22.7161 71.8624 26.8654L53.4042 183.673C52.9156 187.822 55.8848 191.582 60.0354 192.07L186.377 206.932C190.528 207.42 194.288 204.452 194.777 200.302L210.099 70.1311L179.957 31.9629L179.959 31.9647Z" fill="white"/>
<path id="Vector_26" d="M176.823 58.6014C176.335 62.7506 179.304 66.5098 183.454 66.9983L210.099 70.1331L179.957 31.9648L176.821 58.6014H176.823Z" fill="white"/>
<g id="Vector_27" style="mix-blend-mode:multiply" opacity="0.2">
<path d="M182.273 66.7637L209.559 74.733L210.099 70.1328L182.273 66.7637Z" fill="#5172ED"/>
</g>
<g id="Vector_28" style="mix-blend-mode:multiply" opacity="0.2">
<path d="M176.601 60.4851L175.037 31.3848L179.959 31.9645L176.601 60.4851Z" fill="#5172ED"/>
</g>
<path id="Vector_29" d="M141.025 50.2726L86.2075 43.8241C84.6879 43.6452 83.6015 42.2693 83.7805 40.7502C83.9595 39.2311 85.3359 38.145 86.8554 38.324L141.673 44.7724C143.193 44.9513 144.279 46.3273 144.1 47.8463C143.921 49.3654 142.545 50.4515 141.025 50.2726Z" fill="#52D1BD"/>
<path id="Vector_30" d="M139.121 66.4474L84.3032 59.9989C82.7837 59.82 81.6972 58.4441 81.8762 56.925C82.0552 55.4059 83.4316 54.3199 84.9511 54.4988L139.769 60.9472C141.289 61.1262 142.375 62.5021 142.196 64.0212C142.017 65.5402 140.641 66.6263 139.121 66.4474Z" fill="#52D1BD"/>
<path id="Vector_31" d="M181.471 169.762L72.8862 156.988C71.3667 156.809 70.2803 155.433 70.4592 153.914C70.6382 152.395 72.0146 151.309 73.5341 151.488L182.119 164.261C183.639 164.44 184.725 165.816 184.546 167.335C184.367 168.854 182.991 169.941 181.471 169.762Z" fill="#E4ECF9"/>
<path id="Vector_32" d="M149.584 181.715L71.0639 172.479C69.5444 172.3 68.458 170.925 68.637 169.405C68.8159 167.886 70.1923 166.8 71.7118 166.979L150.232 176.215C151.752 176.394 152.838 177.77 152.659 179.289C152.48 180.808 151.104 181.894 149.584 181.715Z" fill="#E4ECF9"/>
<path id="Vector_33" d="M182.663 151.409L76.5407 138.926C74.4931 138.684 73.0291 136.83 73.2707 134.785L79.8339 79.0323C80.0755 76.9854 81.9298 75.5218 83.9755 75.7634L190.098 88.247C192.146 88.4885 193.61 90.3422 193.368 92.3873L186.805 148.14C186.563 150.187 184.709 151.651 182.663 151.409Z" fill="#E4ECF9"/>
</g>
<g id="Vector_34" style="mix-blend-mode:multiply" opacity="0.2">
<path d="M129.091 165.353C144 165.353 156.087 153.271 156.087 138.366C156.087 123.461 144 111.379 129.091 111.379C114.182 111.379 102.096 123.461 102.096 138.366C102.096 153.271 114.182 165.353 129.091 165.353Z" fill="#5172ED"/>
</g>
<g id="Group_4">
<path id="Vector_35" d="M146.593 152.722C157.135 142.183 157.135 125.096 146.593 114.557C136.05 104.018 118.958 104.018 108.415 114.557C97.873 125.096 97.873 142.183 108.415 152.722C118.958 163.262 136.05 163.262 146.593 152.722Z" fill="#F9C067"/>
<path id="Vector_36" d="M137.079 128.603L126.408 118.472C125.814 117.908 124.982 117.672 124.18 117.84C123.378 118.008 122.71 118.56 122.395 119.315L116.709 132.882C116.178 134.151 116.775 135.611 118.044 136.143C119.313 136.674 120.774 136.076 121.305 134.808L123.902 128.613L127.878 147.513C128.16 148.859 129.481 149.721 130.829 149.438C132.175 149.156 133.038 147.835 132.755 146.488L128.78 127.588L133.651 132.213C134.269 132.798 135.107 133.008 135.882 132.845C136.359 132.745 136.812 132.503 137.174 132.122C138.121 131.125 138.081 129.549 137.082 128.601L137.079 128.603Z" fill="white"/>
</g>
<path id="Vector_37" d="M102.901 166.548C105.306 166.548 107.256 164.599 107.256 162.195C107.256 159.791 105.306 157.842 102.901 157.842C100.496 157.842 98.5464 159.791 98.5464 162.195C98.5464 164.599 100.496 166.548 102.901 166.548Z" fill="#F9C067"/>
<path id="Vector_38" d="M111.548 179.175C112.782 177.942 112.782 175.943 111.548 174.709C110.315 173.476 108.315 173.476 107.081 174.709C105.847 175.943 105.847 177.942 107.081 179.175C108.315 180.409 110.315 180.409 111.548 179.175Z" fill="#F9C067"/>
<path id="Vector_39" d="M127.503 175.087C129.409 175.087 130.954 173.542 130.954 171.637C130.954 169.732 129.409 168.188 127.503 168.188C125.598 168.188 124.053 169.732 124.053 171.637C124.053 173.542 125.598 175.087 127.503 175.087Z" fill="#F9C067"/>
<path id="Vector_40" d="M123.405 183.714C123.577 182.654 122.857 181.655 121.796 181.483C120.736 181.311 119.736 182.031 119.564 183.091C119.392 184.151 120.112 185.15 121.173 185.322C122.233 185.494 123.233 184.774 123.405 183.714Z" fill="#F9C067"/>
<path id="Vector_41" d="M99.366 188.761C100.653 188.761 101.696 187.718 101.696 186.431C101.696 185.145 100.653 184.102 99.366 184.102C98.079 184.102 97.0356 185.145 97.0356 186.431C97.0356 187.718 98.079 188.761 99.366 188.761Z" fill="#F9C067"/>
</g>
<defs>
<clipPath id="clip0_721_17290">
<rect width="252" height="254" fill="white"/>
</clipPath>
</defs>
</svg>
