<svg width="40" height="41" viewBox="0 0 40 41" fill="none" xmlns="http://www.w3.org/2000/svg">
<path fill-rule="evenodd" clip-rule="evenodd" d="M10.0428 23.2246C16.972 24.4264 23.9012 24.386 30.8304 23.2246V13.5913C30.8304 13.4815 30.7949 13.3748 30.7291 13.287L26.1659 7.20285C26.1187 7.13989 26.0574 7.08878 25.9871 7.05357C25.9167 7.01836 25.839 7.00002 25.7603 7H11.5638C11.1604 7.00003 10.7736 7.1603 10.4883 7.44554C10.2031 7.73079 10.0428 8.11765 10.0428 8.52105V20.1825C10.0428 20.9355 9.86621 21.5737 9.86621 22.0825C9.86621 22.7858 10.0428 23.2246 10.0428 23.2246Z" fill="#D8DFE3"/>
<path fill-rule="evenodd" clip-rule="evenodd" d="M7 21.9102V32.8578C7.00003 33.2612 7.1603 33.6481 7.44554 33.9333C7.73079 34.2186 8.11765 34.3788 8.52105 34.3789H31.8439C32.2472 34.3788 32.6341 34.2185 32.9193 33.9333C33.2045 33.648 33.3648 33.2612 33.3649 32.8578V24.7456C33.3649 24.3422 33.2046 23.9554 32.9194 23.6701C32.6341 23.3849 32.2473 23.2246 31.8439 23.2246H9.02811C8.38124 23.2246 7 21.9102 7 21.9102Z" fill="#1FB35B"/>
<path fill-rule="evenodd" clip-rule="evenodd" d="M8.52105 23.2247C8.05816 23.2247 7.72025 23.037 7.47153 22.8058C7.23753 22.5882 7 22.2048 7 21.7037C7 21.3821 7.16026 20.9133 7.44549 20.6281C7.73071 20.3429 8.11767 20.1826 8.52105 20.1826H10.0421V23.2247H8.52105Z" fill="#198043"/>
<path fill-rule="evenodd" clip-rule="evenodd" d="M19.6752 21.1964V16.6333H13.084V20.6894C13.084 20.756 13.0971 20.8219 13.1225 20.8835C13.148 20.945 13.1854 21.0009 13.2325 21.048C13.2796 21.0951 13.3355 21.1324 13.397 21.1579C13.4585 21.1834 13.5244 21.1965 13.591 21.1964H19.6752ZM19.6752 11.0562H13.591C13.5245 11.0561 13.4585 11.0692 13.397 11.0947C13.3355 11.1202 13.2796 11.1575 13.2325 11.2046C13.1854 11.2517 13.1481 11.3076 13.1226 11.3691C13.0971 11.4306 13.084 11.4965 13.084 11.5631V15.6193H19.6752V11.0562ZM27.2805 16.6333H20.6892V21.1964H26.7734C26.84 21.1964 26.906 21.1833 26.9675 21.1579C27.029 21.1324 27.0849 21.095 27.132 21.0479C27.1791 21.0008 27.2164 20.945 27.2419 20.8834C27.2674 20.8219 27.2805 20.756 27.2805 20.6894V16.6333ZM25.7594 11.0562H20.6892V15.6193H27.2805V13.5912C27.2805 13.3113 27.0533 13.0841 26.7734 13.0841C26.4936 13.0841 26.2664 11.843 26.2664 11.5631C26.2663 11.4287 26.2129 11.2998 26.1178 11.2047C26.0228 11.1096 25.8939 11.0562 25.7594 11.0562Z" fill="#1FB35B"/>
<path fill-rule="evenodd" clip-rule="evenodd" d="M25.7588 7V12.0702C25.7588 12.4736 25.9191 12.8605 26.2043 13.1457C26.4896 13.431 26.8764 13.5912 27.2798 13.5913H30.8289C30.8289 13.4815 30.7933 13.3748 30.7275 13.287L26.1644 7.20285C26.1171 7.13989 26.0559 7.08878 25.9855 7.05357C25.9151 7.01836 25.8375 7.00002 25.7588 7Z" fill="#AFBDC7"/>
<path fill-rule="evenodd" clip-rule="evenodd" d="M18.8519 26.2668V31.3369C18.8519 31.4035 18.865 31.4694 18.8905 31.531C18.9159 31.5925 18.9533 31.6484 19.0004 31.6955C19.0475 31.7426 19.1034 31.7799 19.1649 31.8054C19.2264 31.8309 19.2924 31.844 19.359 31.844H22.5277C22.8076 31.844 23.0348 31.6168 23.0348 31.3369C23.0347 31.2025 22.9812 31.0736 22.8862 30.9785C22.7911 30.8835 22.6622 30.83 22.5277 30.83H19.8659V26.2668C19.8659 25.987 19.6387 25.7598 19.359 25.7598C19.2245 25.7598 19.0956 25.8133 19.0005 25.9084C18.9054 26.0034 18.852 26.1324 18.8519 26.2668ZM13.783 31.6708L18.2194 26.6006C18.3051 26.499 18.3474 26.3679 18.3374 26.2354C18.3273 26.1029 18.2657 25.9796 18.1657 25.8921C18.0657 25.8046 17.9353 25.7598 17.8026 25.7675C17.67 25.7751 17.5456 25.8345 17.4563 25.9329L13.0198 31.0031C12.9314 31.1044 12.8867 31.2366 12.8957 31.3707C12.9046 31.5048 12.9664 31.6299 13.0675 31.7185C13.1688 31.807 13.301 31.8516 13.4352 31.8427C13.5693 31.8338 13.6944 31.7719 13.783 31.6708Z" fill="#D8DFE3"/>
<path fill-rule="evenodd" clip-rule="evenodd" d="M18.2194 31.0031L13.783 25.9329C13.6944 25.8318 13.5693 25.77 13.4352 25.761C13.301 25.7521 13.1688 25.7968 13.0675 25.8852C12.9664 25.9738 12.9046 26.0989 12.8957 26.233C12.8867 26.3672 12.9314 26.4994 13.0198 26.6006L17.4563 31.6708C17.5456 31.7692 17.67 31.8286 17.8026 31.8363C17.9353 31.8439 18.0657 31.7991 18.1657 31.7116C18.2657 31.6241 18.3273 31.5009 18.3374 31.3684C18.3474 31.2359 18.3051 31.1047 18.2194 31.0031ZM23.2884 30.0726L23.2883 30.0725V30.3239C23.2882 30.5235 23.3275 30.7212 23.4039 30.9056C23.4803 31.0901 23.5923 31.2577 23.7334 31.3988C23.8746 31.54 24.0422 31.6519 24.2266 31.7283C24.411 31.8047 24.6087 31.844 24.8083 31.844H25.9511C26.1507 31.844 26.3484 31.8047 26.5328 31.7283C26.7173 31.6519 26.8848 31.54 27.026 31.3988C27.1672 31.2577 27.2791 31.0901 27.3555 30.9056C27.4319 30.7212 27.4712 30.5235 27.4711 30.3239V30.1221C27.4711 29.5002 27.0925 28.941 26.5151 28.7099L24.6714 27.9725C24.5625 27.9289 24.4691 27.8537 24.4033 27.7565C24.3375 27.6593 24.3023 27.5447 24.3023 27.4273V27.2808C24.3023 27.1464 24.3557 27.0174 24.4508 26.9223C24.4979 26.8752 24.5538 26.8379 24.6153 26.8124C24.6768 26.7869 24.7427 26.7738 24.8093 26.7738H25.9501C26.0846 26.7738 26.2135 26.8272 26.3086 26.9223C26.3557 26.9694 26.3931 27.0253 26.4185 27.0868C26.444 27.1483 26.4572 27.2142 26.4572 27.2808V27.5312C26.4572 27.6743 26.5204 27.8038 26.584 27.8695C26.6316 27.9233 26.6902 27.9664 26.7557 27.996C26.8212 28.0256 26.8922 28.0411 26.9641 28.0413C27.211 28.0413 27.4711 27.8508 27.4711 27.5312V27.2808C27.4711 26.8774 27.3109 26.4906 27.0256 26.2053C26.7404 25.9201 26.3535 25.7598 25.9501 25.7598H24.8093C24.4059 25.7598 24.019 25.9201 23.7338 26.2053C23.4486 26.4906 23.2883 26.8774 23.2883 27.2808V27.4273C23.2883 28.082 23.6869 28.6708 24.2948 28.9139L26.1385 29.6515C26.2325 29.6891 26.3132 29.754 26.37 29.8379C26.4268 29.9218 26.4572 30.0208 26.4572 30.1221V30.3239C26.4571 30.4581 26.4038 30.5868 26.3089 30.6817C26.214 30.7766 26.0853 30.8299 25.9511 30.83H24.8083C24.6742 30.8299 24.5455 30.7766 24.4506 30.6817C24.3558 30.5868 24.3024 30.4582 24.3024 30.324L24.3023 30.0725C24.3023 29.7381 24.0298 29.5621 23.8042 29.5621C23.5903 29.5621 23.2883 29.728 23.2883 30.0695C23.2882 30.0705 23.2882 30.0716 23.2884 30.0726Z" fill="#D8DFE3"/>
</svg>
