<svg width="48" height="48" viewBox="0 0 48 48" fill="none" xmlns="http://www.w3.org/2000/svg">
<g filter="url(#filter0_d_820_23531)">
<rect x="4" width="40" height="40" rx="20" fill="#FF725E" shape-rendering="crispEdges"/>
<path fill-rule="evenodd" clip-rule="evenodd" d="M15.1562 20.4608C14.934 20.5477 14.843 20.8132 14.9652 21.018L16.3611 23.3585C16.6115 23.7783 17.1287 23.9556 17.584 23.7776L31.6309 18.2868C32.2932 18.0279 32.6203 17.2811 32.3614 16.6188C32.0923 15.9303 31.3001 15.6092 30.6276 15.9161L26.4358 17.8291L20.5905 12.457C20.348 12.2341 19.9997 12.1688 19.6929 12.2887C19.1788 12.4897 18.9832 13.1151 19.2911 13.5732L23.0437 19.1551L17.3053 21.7537L15.5178 20.504C15.4121 20.4301 15.2764 20.4139 15.1562 20.4608ZM33.0894 26.4456H15.8727V27.77H33.0894V26.4456Z" fill="white"/>
</g>
<defs>
<filter id="filter0_d_820_23531" x="0" y="0" width="48" height="48" filterUnits="userSpaceOnUse" color-interpolation-filters="sRGB">
<feFlood flood-opacity="0" result="BackgroundImageFix"/>
<feColorMatrix in="SourceAlpha" type="matrix" values="0 0 0 0 0 0 0 0 0 0 0 0 0 0 0 0 0 0 127 0" result="hardAlpha"/>
<feOffset dy="4"/>
<feGaussianBlur stdDeviation="2"/>
<feComposite in2="hardAlpha" operator="out"/>
<feColorMatrix type="matrix" values="0 0 0 0 0 0 0 0 0 0 0 0 0 0 0 0 0 0 0.25 0"/>
<feBlend mode="normal" in2="BackgroundImageFix" result="effect1_dropShadow_820_23531"/>
<feBlend mode="normal" in="SourceGraphic" in2="effect1_dropShadow_820_23531" result="shape"/>
</filter>
</defs>
</svg>
