<svg width="232" height="75" viewBox="0 0 232 75" fill="none" xmlns="http://www.w3.org/2000/svg">
<g clip-path="url(#clip0_609_11924)">
<path d="M114.883 21.8584L49.479 42.0432L102.525 30.228L103.804 35.304L114.883 21.8584Z" fill="#292929"/>
<path d="M88.4743 17.4136L53.0889 33.5006L80.0833 18.5114L78.7173 15.8701L88.4743 17.4136Z" fill="#292929"/>
<path d="M28.6965 46.5761L117.377 18.3913L120.293 25.9348L135.894 3.72826L110.254 0L113.127 7.43478L28.6965 46.5761Z" fill="#B8B8B8"/>
<path d="M56.9485 42.6197C56.9051 42.3045 56.6124 42.0871 56.3088 42.1306C55.9944 42.1741 55.7776 42.4567 55.821 42.7719C55.9619 43.8371 56.0378 44.9132 56.0595 46.0002H47.0505C47.0397 44.9893 46.9963 43.9676 46.9204 42.9784C46.8987 42.6632 46.6169 42.435 46.3133 42.4567C45.9989 42.4784 45.7713 42.761 45.7929 43.0763C45.8688 44.0437 45.9122 45.0219 45.923 46.011H29.1843V38.9023C38.0524 38.7937 46.2916 36.0437 51.5713 31.4676C51.7989 31.8045 52.0157 32.1415 52.2326 32.4893C52.3952 32.761 52.7421 32.848 53.0131 32.685C53.2842 32.5219 53.3709 32.1741 53.2083 31.9023C52.9481 31.4676 52.6771 31.0545 52.406 30.6415C52.4819 30.4458 52.4494 30.2067 52.2976 30.0436C52.1784 29.9241 52.0266 29.8697 51.8748 29.8697C49.6307 26.7502 46.8012 24.1415 43.5814 22.1632C43.5055 22.0763 43.4079 22.0219 43.2886 21.9893C38.9088 19.3697 33.8569 17.9023 28.6314 17.9023C23.406 17.9023 18.2023 19.4023 13.8984 22.011C13.8658 22.0219 13.8442 22.0437 13.8225 22.0545C10.3967 24.1415 7.45874 26.9241 5.17126 30.2067C5.17126 30.2067 5.14958 30.2067 5.14958 30.2284C5.11706 30.261 5.09537 30.3045 5.07369 30.348C1.89724 34.9676 0.0217285 40.5654 0.0217285 46.598C0.0217285 47.5763 0.0759341 48.5654 0.173504 49.5328C0.206028 49.8263 0.455373 50.0437 0.737243 50.0437C0.758925 50.0437 0.780607 50.0437 0.791448 50.0437C1.10584 50.011 1.3335 49.7284 1.30098 49.4241C1.22509 48.685 1.19257 47.9241 1.17089 47.1741H3.29575C3.61014 47.1741 3.85949 46.9241 3.85949 46.6089C3.85949 46.2937 3.61014 46.0437 3.29575 46.0437H1.17089C1.2793 40.685 2.92715 35.6958 5.68079 31.5002C7.38285 32.9784 9.3993 34.2719 11.6543 35.3371C11.058 37.5328 10.6243 39.8697 10.3858 42.3371C10.3533 42.6523 10.581 42.9241 10.8954 42.9567C10.9171 42.9567 10.9279 42.9567 10.9496 42.9567C11.2423 42.9567 11.4808 42.7393 11.5133 42.4458C11.741 40.1197 12.1529 37.9132 12.7167 35.8263C17.2049 37.761 22.5171 38.8697 28.0569 38.935V46.0437H19.9911C19.6767 46.0437 19.4273 46.2937 19.4273 46.6089C19.4273 46.9241 19.6767 47.1741 19.9911 47.1741H28.0569V74.7176C28.0569 75.0328 28.3062 75.2828 28.6206 75.2828C28.935 75.2828 29.1843 75.0328 29.1843 74.7176V47.1741H45.9122C45.9122 47.935 45.8905 48.6958 45.8363 49.4458C45.8146 49.761 46.0531 50.0328 46.3675 50.0545C46.3784 50.0545 46.3892 50.0545 46.4 50.0545C46.6928 50.0545 46.9529 49.8263 46.9638 49.5219C47.018 48.7502 47.0288 47.9676 47.0397 47.185H56.0703C56.0595 47.935 56.0161 48.6958 55.9402 49.435C55.9077 49.7502 56.1354 50.0328 56.4498 50.0545C56.4714 50.0545 56.4931 50.0545 56.504 50.0545C56.7967 50.0545 57.0352 49.8371 57.0677 49.5437C57.1653 48.5763 57.2195 47.5871 57.2195 46.6089C57.2195 45.2937 57.1328 43.9567 56.9485 42.6523V42.6197ZM29.1735 19.0545C32.3716 19.2284 35.418 20.7936 38.009 23.4784C35.1903 24.1306 32.1982 24.4784 29.1735 24.5219V19.0545ZM28.0352 24.5219C25.0214 24.4784 22.0509 24.1415 19.243 23.4893C21.8124 20.8371 24.8371 19.2393 28.0352 19.0654V24.5219ZM29.1735 25.6632C32.5126 25.6197 35.7974 25.2067 38.8763 24.435C41.1096 27.0654 42.9526 30.5545 44.1993 34.6741C39.8303 36.5871 34.6157 37.6741 29.1627 37.7502V25.6632H29.1735ZM50.91 30.511C49.2946 31.9241 47.3866 33.1632 45.2509 34.1958C44.0258 30.2067 42.2371 26.7828 40.0797 24.1306C41.0879 23.848 42.0636 23.5219 43.0176 23.1632C46.0748 25.0545 48.7743 27.5328 50.91 30.511ZM41.7384 22.4132C40.9361 22.6958 40.1122 22.9458 39.2666 23.1741C38.0632 21.848 36.7514 20.7502 35.3746 19.9023C37.5971 20.4784 39.7328 21.3263 41.7384 22.4241V22.4132ZM17.8879 23.1523C17.0531 22.9241 16.24 22.6741 15.4486 22.4023C17.4326 21.3154 19.5574 20.4676 21.7907 19.8915C20.403 20.7393 19.0913 21.8371 17.8879 23.1632V23.1523ZM6.30958 30.511C8.4236 27.5763 11.0905 25.0654 14.1694 23.1523C15.1126 23.511 16.0883 23.8263 17.0857 24.1089C14.9174 26.7828 13.1612 30.2067 11.947 34.185C9.81126 33.1523 7.91407 31.9241 6.30958 30.511ZM13.0202 34.685C14.2561 30.6089 16.11 27.1089 18.3649 24.4458C21.4438 25.2067 24.707 25.6197 28.0352 25.6632V37.7502C22.5929 37.6741 17.3892 36.598 13.0094 34.685H13.0202Z" fill="#292929"/>
<path d="M35.5735 68.5732C34.4834 68.5732 33.4356 68.4105 32.43 68.0851C31.4339 67.7507 30.5599 67.2761 29.8081 66.6614C29.0563 66.0377 28.5159 65.292 28.187 64.4242L31.4151 63.2853C31.5466 63.6469 31.8145 63.9768 32.2186 64.2751C32.6227 64.5734 33.116 64.8129 33.6987 64.9937C34.2813 65.1745 34.9063 65.2649 35.5735 65.2649C36.2595 65.2649 36.8986 65.1655 37.4906 64.9666C38.0921 64.7587 38.576 64.474 38.9425 64.1124C39.3091 63.7418 39.4923 63.3124 39.4923 62.8243C39.4923 62.3272 39.2997 61.9204 38.9144 61.604C38.5291 61.2786 38.0357 61.021 37.4342 60.8312C36.8328 60.6414 36.2125 60.4967 35.5735 60.3973C34.1733 60.1894 32.9187 59.8685 31.8098 59.4346C30.7009 59.0008 29.8222 58.3997 29.1738 57.6313C28.5347 56.863 28.2152 55.8687 28.2152 54.6484C28.2152 53.5004 28.5582 52.4971 29.2442 51.6384C29.9303 50.7797 30.8324 50.1108 31.9507 49.6317C33.0691 49.1526 34.2766 48.9131 35.5735 48.9131C36.6542 48.9131 37.6974 49.0758 38.7029 49.4012C39.7085 49.7266 40.5871 50.2012 41.3389 50.8249C42.1001 51.4486 42.6452 52.1988 42.9741 53.0756L39.7319 54.201C39.6004 53.8394 39.3325 53.5095 38.9284 53.2112C38.5244 52.9129 38.031 52.6779 37.4483 52.5061C36.8657 52.3254 36.2407 52.235 35.5735 52.235C34.9063 52.2259 34.2719 52.3299 33.6705 52.5468C33.0785 52.7547 32.5945 53.0395 32.2186 53.401C31.8427 53.7626 31.6547 54.1784 31.6547 54.6484C31.6547 55.254 31.8286 55.7105 32.1763 56.0178C32.5334 56.3252 33.008 56.5512 33.6 56.6958C34.1921 56.8314 34.8499 56.9579 35.5735 57.0754C36.8892 57.2743 38.1062 57.6087 39.2245 58.0788C40.3428 58.5488 41.2403 59.177 41.9169 59.9634C42.5935 60.7408 42.9318 61.6944 42.9318 62.8243C42.9318 63.9723 42.5935 64.9802 41.9169 65.8479C41.2403 66.7066 40.3428 67.3755 39.2245 67.8546C38.1062 68.3337 36.8892 68.5732 35.5735 68.5732Z" fill="#292929"/>
<path d="M45.7315 68.2207V54.662H49.171V55.8687C49.6503 55.3806 50.2235 54.9964 50.8908 54.7162C51.558 54.427 52.2769 54.2823 53.0475 54.2823C54.0249 54.2823 54.9223 54.5038 55.7399 54.9467C56.5669 55.3896 57.2247 55.9817 57.7134 56.7229C58.2115 55.9817 58.8693 55.3896 59.6869 54.9467C60.5045 54.5038 61.402 54.2823 62.3793 54.2823C63.413 54.2823 64.3481 54.5264 65.1845 55.0145C66.0303 55.4936 66.7022 56.1399 67.2003 56.9534C67.7077 57.7579 67.9615 58.6573 67.9615 59.6516V68.2207H64.522V60.5329C64.522 60.0086 64.3857 59.5296 64.1132 59.0957C63.85 58.6528 63.4929 58.3002 63.0418 58.0381C62.6002 57.7669 62.1021 57.6313 61.5476 57.6313C60.9932 57.6313 60.4904 57.7624 60.0393 58.0245C59.5976 58.2776 59.2405 58.6211 58.968 59.055C58.6955 59.4889 58.5592 59.9815 58.5592 60.5329V68.2207H55.1197V60.5329C55.1197 59.9815 54.9881 59.4889 54.725 59.055C54.4618 58.6211 54.1047 58.2776 53.6537 58.0245C53.2026 57.7624 52.6998 57.6313 52.1453 57.6313C51.6003 57.6313 51.1022 57.7669 50.6511 58.0381C50.2 58.3002 49.8382 58.6528 49.5657 59.0957C49.3026 59.5296 49.171 60.0086 49.171 60.5329V68.2207H45.7315Z" fill="#292929"/>
<path d="M81.1389 54.662H84.5785V68.2207H81.1389L80.9839 66.5394C80.5986 67.145 80.0864 67.6377 79.4474 68.0173C78.8177 68.3879 78.0706 68.5732 77.2061 68.5732C76.1629 68.5732 75.1856 68.3834 74.274 68.0037C73.3624 67.6241 72.559 67.0998 71.8635 66.4309C71.1775 65.762 70.6371 64.9892 70.2424 64.1124C69.8571 63.2356 69.6645 62.2955 69.6645 61.2922C69.6645 60.325 69.8477 59.4166 70.2143 58.5669C70.5902 57.7172 71.1117 56.9715 71.7789 56.3297C72.4462 55.6879 73.2168 55.1862 74.0908 54.8247C74.9647 54.4631 75.9045 54.2823 76.91 54.2823C77.8404 54.2823 78.6721 54.4812 79.4051 54.8789C80.1475 55.2766 80.7771 55.7828 81.294 56.3975L81.1389 54.662ZM77.1215 65.3869C77.8545 65.3869 78.5029 65.2107 79.0668 64.8581C79.6306 64.5056 80.0723 64.031 80.3918 63.4345C80.7114 62.8288 80.8711 62.1645 80.8711 61.4413C80.8711 60.7092 80.7114 60.0448 80.3918 59.4482C80.0723 58.8426 79.6259 58.3635 79.0527 58.011C78.4888 57.6585 77.8451 57.4822 77.1215 57.4822C76.3979 57.4822 75.7353 57.663 75.1339 58.0245C74.5418 58.3771 74.0673 58.8516 73.7102 59.4482C73.3624 60.0448 73.1886 60.7092 73.1886 61.4413C73.1886 62.1735 73.3671 62.8379 73.7243 63.4345C74.0814 64.031 74.5559 64.5056 75.148 64.8581C75.7494 65.2107 76.4073 65.3869 77.1215 65.3869Z" fill="#292929"/>
<path d="M87.4015 68.2207L87.3874 54.662H90.8269L90.841 55.8687C91.3203 55.3806 91.8935 54.9964 92.5608 54.7162C93.228 54.427 93.9469 54.2823 94.7175 54.2823C95.2344 54.2823 95.7512 54.3546 96.2681 54.4993L94.9148 57.8347C94.5577 57.6991 94.2006 57.6313 93.8435 57.6313C93.2891 57.6313 92.7816 57.7624 92.3211 58.0245C91.87 58.2776 91.5082 58.6256 91.2357 59.0686C90.9726 59.5024 90.841 59.986 90.841 60.5193V68.2207H87.4015Z" fill="#292929"/>
<path d="M105.791 57.9703H103.056V68.2207H99.6164V57.9703H97.5302V54.662H99.6164V50.4045H103.056V54.662H105.791V57.9703Z" fill="#292929"/>
<path d="M121.709 49.2385H125.67L132.845 68.2207H129.194L127.926 64.8581H119.468L118.199 68.2207H114.548L121.709 49.2385ZM120.722 61.5498H126.657L123.683 53.7264L120.722 61.5498Z" fill="#292929"/>
<path d="M134.88 54.662H138.32V68.2207H134.88V54.662ZM136.628 52.9129C136.121 52.9129 135.693 52.7547 135.345 52.4384C134.998 52.1129 134.824 51.7062 134.824 51.2181C134.824 50.739 134.998 50.3368 135.345 50.0113C135.693 49.6859 136.116 49.5232 136.614 49.5232C137.112 49.5232 137.53 49.6859 137.868 50.0113C138.216 50.3368 138.39 50.739 138.39 51.2181C138.39 51.7062 138.221 52.1129 137.883 52.4384C137.544 52.7547 137.126 52.9129 136.628 52.9129Z" fill="#292929"/>
<path d="M141.612 68.2207L141.598 54.662H145.037L145.051 55.8687C145.531 55.3806 146.104 54.9964 146.771 54.7162C147.438 54.427 148.157 54.2823 148.928 54.2823C149.445 54.2823 149.962 54.3546 150.479 54.4993L149.125 57.8347C148.768 57.6991 148.411 57.6313 148.054 57.6313C147.5 57.6313 146.992 57.7624 146.532 58.0245C146.081 58.2776 145.719 58.6256 145.446 59.0686C145.183 59.5024 145.051 59.986 145.051 60.5193V68.2207H141.612Z" fill="#292929"/>
<path d="M155.968 75H152.528V54.662H155.968V56.3839C156.428 55.7693 156.992 55.2721 157.659 54.8925C158.336 54.5038 159.125 54.3095 160.027 54.3095C161.061 54.3095 162.024 54.4948 162.917 54.8654C163.81 55.236 164.595 55.7512 165.271 56.4111C165.957 57.0619 166.488 57.8166 166.864 58.6754C167.249 59.5341 167.442 60.4561 167.442 61.4413C167.442 62.4266 167.249 63.3531 166.864 64.2209C166.488 65.0886 165.957 65.8524 165.271 66.5123C164.595 67.1631 163.81 67.6738 162.917 68.0444C162.024 68.415 161.061 68.6003 160.027 68.6003C159.125 68.6003 158.336 68.4105 157.659 68.0309C156.992 67.6422 156.428 67.1405 155.968 66.5258V75ZM159.985 57.4957C159.271 57.4957 158.632 57.6765 158.068 58.0381C157.504 58.3906 157.062 58.8652 156.743 59.4618C156.423 60.0583 156.264 60.7182 156.264 61.4413C156.264 62.1645 156.423 62.8288 156.743 63.4345C157.062 64.031 157.504 64.5101 158.068 64.8717C158.632 65.2242 159.271 65.4005 159.985 65.4005C160.709 65.4005 161.371 65.2242 161.973 64.8717C162.574 64.5192 163.053 64.0446 163.41 63.448C163.768 62.8424 163.946 62.1735 163.946 61.4413C163.946 60.7182 163.768 60.0583 163.41 59.4618C163.053 58.8652 162.574 58.3906 161.973 58.0381C161.381 57.6765 160.718 57.4957 159.985 57.4957Z" fill="#292929"/>
<path d="M175.91 68.5732C174.614 68.5732 173.429 68.2523 172.358 67.6105C171.296 66.9688 170.446 66.11 169.807 65.0344C169.177 63.9497 168.862 62.752 168.862 61.4413C168.862 60.447 169.045 59.5205 169.412 58.6618C169.778 57.794 170.281 57.0348 170.92 56.3839C171.569 55.7241 172.321 55.2088 173.176 54.8382C174.031 54.4676 174.942 54.2823 175.91 54.2823C177.207 54.2823 178.387 54.6032 179.449 55.245C180.52 55.8868 181.37 56.75 182 57.8347C182.639 58.9194 182.959 60.1216 182.959 61.4413C182.959 62.4266 182.775 63.3486 182.409 64.2073C182.042 65.066 181.535 65.8253 180.886 66.4852C180.247 67.136 179.5 67.6467 178.645 68.0173C177.799 68.3879 176.888 68.5732 175.91 68.5732ZM175.91 65.2649C176.596 65.2649 177.212 65.0886 177.757 64.7361C178.302 64.3836 178.73 63.9181 179.04 63.3396C179.359 62.761 179.519 62.1283 179.519 61.4413C179.519 60.7363 179.355 60.0945 179.026 59.516C178.706 58.9285 178.269 58.4629 177.715 58.1194C177.17 57.7669 176.568 57.5907 175.91 57.5907C175.234 57.5907 174.623 57.7669 174.078 58.1194C173.533 58.472 173.101 58.942 172.781 59.5296C172.462 60.1171 172.302 60.7544 172.302 61.4413C172.302 62.1554 172.466 62.8017 172.795 63.3802C173.124 63.9587 173.561 64.4197 174.106 64.7632C174.661 65.0977 175.262 65.2649 175.91 65.2649Z" fill="#292929"/>
<path d="M185.168 68.2207L185.153 54.662H188.593L188.607 55.8687C189.086 55.3806 189.66 54.9964 190.327 54.7162C190.994 54.427 191.713 54.2823 192.484 54.2823C193 54.2823 193.517 54.3546 194.034 54.4993L192.681 57.8347C192.324 57.6991 191.967 57.6313 191.61 57.6313C191.055 57.6313 190.548 57.7624 190.087 58.0245C189.636 58.2776 189.274 58.6256 189.002 59.0686C188.739 59.5024 188.607 59.986 188.607 60.5193V68.2207H185.168Z" fill="#292929"/>
<path d="M203.557 57.9703H200.822V68.2207H197.382V57.9703H195.296V54.662H197.382V50.4045H200.822V54.662H203.557V57.9703Z" fill="#292929"/>
<path d="M210.043 68.4647C209.31 68.4195 208.601 68.2794 207.915 68.0444C207.238 67.8004 206.637 67.4704 206.111 67.0546C205.584 66.6388 205.18 66.1417 204.898 65.5632L207.802 64.37C207.915 64.5508 208.098 64.7451 208.352 64.953C208.606 65.1519 208.906 65.3191 209.254 65.4547C209.611 65.5903 210.001 65.6581 210.424 65.6581C210.781 65.6581 211.119 65.6129 211.439 65.5225C211.768 65.4231 212.031 65.2739 212.228 65.0751C212.435 64.8762 212.539 64.6186 212.539 64.3022C212.539 63.9678 212.416 63.7102 212.172 63.5294C211.937 63.3396 211.636 63.1994 211.27 63.1091C210.913 63.0096 210.565 62.9192 210.227 62.8379C209.334 62.6661 208.502 62.3995 207.732 62.0379C206.97 61.6764 206.355 61.2108 205.885 60.6414C205.425 60.0629 205.194 59.3669 205.194 58.5533C205.194 57.6585 205.439 56.8856 205.927 56.2348C206.425 55.584 207.069 55.0823 207.859 54.7298C208.657 54.3772 209.517 54.201 210.438 54.201C211.556 54.201 212.581 54.427 213.511 54.8789C214.451 55.3218 215.193 55.9501 215.738 56.7636L213.018 58.3093C212.886 58.0923 212.703 57.8935 212.468 57.7127C212.233 57.5229 211.965 57.3692 211.665 57.2517C211.364 57.1251 211.049 57.0528 210.72 57.0348C210.297 57.0167 209.912 57.0528 209.564 57.1432C209.216 57.2336 208.935 57.3873 208.718 57.6042C208.512 57.8212 208.408 58.1104 208.408 58.472C208.408 58.8155 208.549 59.0731 208.831 59.2448C209.113 59.4075 209.451 59.5341 209.846 59.6245C210.25 59.7149 210.636 59.8143 211.002 59.9228C211.829 60.1849 212.604 60.5058 213.328 60.8854C214.061 61.2651 214.648 61.7306 215.09 62.282C215.532 62.8334 215.743 63.4932 215.724 64.2615C215.724 65.1383 215.452 65.9067 214.907 66.5665C214.362 67.2173 213.657 67.7145 212.792 68.058C211.937 68.4015 211.021 68.5371 210.043 68.4647Z" fill="#292929"/>
</g>
<defs>
<clipPath id="clip0_609_11924">
<rect width="232" height="75" fill="white"/>
</clipPath>
</defs>
</svg>
