<svg width="20" height="20" viewBox="0 0 20 20" fill="none" xmlns="http://www.w3.org/2000/svg">
<path d="M4.63337 15.6167C4.63337 15.6167 4.62505 15.6167 4.61671 15.6167L2.4917 15.6083C2.15003 15.6083 1.8667 15.325 1.8667 14.9833C1.8667 14.6417 2.15003 14.3583 2.4917 14.3583L4.61671 14.3667H4.62503C5.1667 14.3667 5.67505 14.1 5.97505 13.6417L11.3 5.65831C11.8334 4.85832 12.725 4.375 13.6917 4.375C13.6917 4.375 13.7001 4.375 13.7084 4.375L17.5 4.39168C17.8417 4.39168 18.125 4.67502 18.125 5.01668C18.125 5.35835 17.8417 5.64168 17.5 5.64168L13.7084 5.625H13.7C13.1584 5.625 12.65 5.89166 12.35 6.35L7.02503 14.3333C6.4917 15.1417 5.60004 15.6167 4.63337 15.6167Z" fill="#3D3D3D"/>
<path d="M15.8334 17.2749C15.675 17.2749 15.5167 17.2166 15.3917 17.0916C15.15 16.8499 15.15 16.4499 15.3917 16.2083L17.0584 14.5416C17.3 14.2999 17.7 14.2999 17.9417 14.5416C18.1834 14.7833 18.1834 15.1833 17.9417 15.4249L16.275 17.0916C16.15 17.2166 15.9917 17.2749 15.8334 17.2749Z" fill="#3D3D3D"/>
<path d="M7.40835 7.81663C7.21668 7.81663 7.025 7.72497 6.9 7.5583L6.00001 6.3083C5.69168 5.8833 5.18332 5.6333 4.67499 5.6333L2.5 5.64164C2.11667 5.63331 1.875 5.36664 1.875 5.01664C1.875 4.67498 2.15 4.39164 2.5 4.39164L4.67499 4.3833C4.68332 4.3833 4.68334 4.3833 4.69167 4.3833C5.61667 4.3833 6.48333 4.83329 7.02499 5.57496L7.92501 6.82496C8.12501 7.10829 8.06666 7.49162 7.78333 7.69995C7.66666 7.77495 7.54168 7.81663 7.40835 7.81663Z" fill="#3D3D3D"/>
<path d="M13.6002 15.6249C12.7169 15.6249 11.8669 15.2083 11.3252 14.5083L10.3086 13.2C10.1002 12.925 10.1502 12.5333 10.4169 12.3249C10.6919 12.1166 11.0836 12.1666 11.2919 12.4333L12.3086 13.7416C12.6169 14.1416 13.1086 14.3416 13.6002 14.3749L17.4919 14.3583C17.8336 14.3583 18.1169 14.6333 18.1169 14.9833C18.1169 15.3249 17.8419 15.6083 17.4919 15.6083L13.6002 15.6249C13.6086 15.6249 13.6002 15.6249 13.6002 15.6249Z" fill="#3D3D3D"/>
<path d="M17.5 5.64166C17.3417 5.64166 17.1834 5.5833 17.0584 5.4583L15.3917 3.79163C15.15 3.54997 15.15 3.14997 15.3917 2.9083C15.6334 2.66663 16.0334 2.66663 16.275 2.9083L17.9417 4.57497C18.1834 4.81663 18.1834 5.21663 17.9417 5.4583C17.8167 5.5833 17.6584 5.64166 17.5 5.64166Z" fill="#3D3D3D"/>
</svg>
