<svg width="20" height="20" viewBox="0 0 20 20" fill="none" xmlns="http://www.w3.org/2000/svg">
<path d="M10.8748 13.5416H9.30818C8.19985 13.5416 7.2915 12.6083 7.2915 11.4583C7.2915 11.1166 7.57484 10.8333 7.9165 10.8333C8.25817 10.8333 8.5415 11.1166 8.5415 11.4583C8.5415 11.9166 8.88318 12.2916 9.30818 12.2916H10.8748C11.1998 12.2916 11.4582 11.9999 11.4582 11.6416C11.4582 11.1916 11.3332 11.1249 11.0498 11.0249L8.5415 10.1499C8.00817 9.96661 7.2915 9.57495 7.2915 8.34995C7.2915 7.30828 8.11651 6.44995 9.12485 6.44995H10.6915C11.7998 6.44995 12.7082 7.38328 12.7082 8.53328C12.7082 8.87495 12.4248 9.15828 12.0832 9.15828C11.7415 9.15828 11.4582 8.87495 11.4582 8.53328C11.4582 8.07495 11.1165 7.69995 10.6915 7.69995H9.12485C8.79985 7.69995 8.5415 7.99162 8.5415 8.34995C8.5415 8.79995 8.6665 8.86661 8.94983 8.96661L11.4582 9.84161C11.9915 10.0249 12.7082 10.4166 12.7082 11.6416C12.7082 12.6916 11.8832 13.5416 10.8748 13.5416Z" fill="#3D3D3D"/>
<path d="M10 14.375C9.65833 14.375 9.375 14.0917 9.375 13.75V6.25C9.375 5.90833 9.65833 5.625 10 5.625C10.3417 5.625 10.625 5.90833 10.625 6.25V13.75C10.625 14.0917 10.3417 14.375 10 14.375Z" fill="#3D3D3D"/>
<path d="M9.99984 18.9584C5.05817 18.9584 1.0415 14.9417 1.0415 10.0001C1.0415 5.05841 5.05817 1.04175 9.99984 1.04175C10.3415 1.04175 10.6248 1.32508 10.6248 1.66675C10.6248 2.00841 10.3415 2.29175 9.99984 2.29175C5.74984 2.29175 2.2915 5.75008 2.2915 10.0001C2.2915 14.2501 5.74984 17.7084 9.99984 17.7084C14.2498 17.7084 17.7082 14.2501 17.7082 10.0001C17.7082 9.65841 17.9915 9.37508 18.3332 9.37508C18.6748 9.37508 18.9582 9.65841 18.9582 10.0001C18.9582 14.9417 14.9415 18.9584 9.99984 18.9584Z" fill="#3D3D3D"/>
<path d="M17.4998 6.45833H14.1665C13.8248 6.45833 13.5415 6.175 13.5415 5.83333V2.5C13.5415 2.15833 13.8248 1.875 14.1665 1.875C14.5082 1.875 14.7915 2.15833 14.7915 2.5V5.20833H17.4998C17.8415 5.20833 18.1248 5.49167 18.1248 5.83333C18.1248 6.175 17.8415 6.45833 17.4998 6.45833Z" fill="#3D3D3D"/>
<path d="M14.1669 6.45828C14.0085 6.45828 13.8502 6.39995 13.7252 6.27495C13.4835 6.03328 13.4835 5.63328 13.7252 5.39162L17.8919 1.22495C18.1335 0.983285 18.5335 0.983285 18.7752 1.22495C19.0169 1.46662 19.0169 1.86662 18.7752 2.10828L14.6085 6.27495C14.4835 6.39995 14.3252 6.45828 14.1669 6.45828Z" fill="#3D3D3D"/>
</svg>
